<?xml version="1.0" encoding="UTF-8" standalone="no"?>
<!DOCTYPE svg PUBLIC "-//W3C//DTD SVG 1.1//EN"
 "http://www.w3.org/Graphics/SVG/1.1/DTD/svg11.dtd">
<!-- Generated by graphviz version 11.0.0 (20240428.1522)
 -->
<!-- Pages: 1 -->
<svg width="2925pt" height="236pt"
 viewBox="0.00 0.00 2924.75 236.00" xmlns="http://www.w3.org/2000/svg" xmlns:xlink="http://www.w3.org/1999/xlink">
<g id="graph0" class="graph" transform="scale(1 1) rotate(0) translate(4 232)">
<polygon fill="white" stroke="none" points="-4,4 -4,-232 2920.75,-232 2920.75,4 -4,4"/>
<!-- 1938184398352 -->
<g id="node1" class="node">
<title>1938184398352</title>
<polygon fill="none" stroke="black" points="664.5,-82.5 664.5,-118.5 923.25,-118.5 923.25,-82.5 664.5,-82.5"/>
<text text-anchor="middle" x="710.38" y="-95.2" font-family="Times New Roman,serif" font-size="14.00">x1w1 + x2w2</text>
<polyline fill="none" stroke="black" points="756.25,-82.75 756.25,-118.5"/>
<text text-anchor="middle" x="798.75" y="-95.2" font-family="Times New Roman,serif" font-size="14.00">data &#45;6.0000</text>
<polyline fill="none" stroke="black" points="841.25,-82.75 841.25,-118.5"/>
<text text-anchor="middle" x="882.25" y="-95.2" font-family="Times New Roman,serif" font-size="14.00">grad 0.5000</text>
</g>
<!-- 1938248496016+ -->
<g id="node25" class="node">
<title>1938248496016+</title>
<ellipse fill="none" stroke="black" cx="986.25" cy="-127.5" rx="27" ry="18"/>
<text text-anchor="middle" x="986.25" y="-122.08" font-family="Times New Roman,serif" font-size="14.00">+</text>
</g>
<!-- 1938184398352&#45;&gt;1938248496016+ -->
<g id="edge26" class="edge">
<title>1938184398352&#45;&gt;1938248496016+</title>
<path fill="none" stroke="black" d="M923.7,-118.77C932.33,-120 940.54,-121.16 947.99,-122.21"/>
<polygon fill="black" stroke="black" points="947.48,-125.68 957.87,-123.62 948.46,-118.75 947.48,-125.68"/>
</g>
<!-- 1938184398352+ -->
<g id="node2" class="node">
<title>1938184398352+</title>
<ellipse fill="none" stroke="black" cx="601.5" cy="-100.5" rx="27" ry="18"/>
<text text-anchor="middle" x="601.5" y="-95.08" font-family="Times New Roman,serif" font-size="14.00">+</text>
</g>
<!-- 1938184398352+&#45;&gt;1938184398352 -->
<g id="edge1" class="edge">
<title>1938184398352+&#45;&gt;1938184398352</title>
<path fill="none" stroke="black" d="M628.97,-100.5C636.01,-100.5 644.12,-100.5 652.9,-100.5"/>
<polygon fill="black" stroke="black" points="652.81,-104 662.81,-100.5 652.81,-97 652.81,-104"/>
</g>
<!-- 1938248495632 -->
<g id="node3" class="node">
<title>1938248495632</title>
<polygon fill="none" stroke="black" points="325.5,-110.5 325.5,-146.5 538.5,-146.5 538.5,-110.5 325.5,-110.5"/>
<text text-anchor="middle" x="348.5" y="-123.2" font-family="Times New Roman,serif" font-size="14.00">x1w1</text>
<polyline fill="none" stroke="black" points="371.5,-110.75 371.5,-146.5"/>
<text text-anchor="middle" x="414" y="-123.2" font-family="Times New Roman,serif" font-size="14.00">data &#45;6.0000</text>
<polyline fill="none" stroke="black" points="456.5,-110.75 456.5,-146.5"/>
<text text-anchor="middle" x="497.5" y="-123.2" font-family="Times New Roman,serif" font-size="14.00">grad 0.5000</text>
</g>
<!-- 1938248495632&#45;&gt;1938184398352+ -->
<g id="edge13" class="edge">
<title>1938248495632&#45;&gt;1938184398352+</title>
<path fill="none" stroke="black" d="M538.61,-110.85C547.54,-109.35 556.12,-107.92 563.9,-106.62"/>
<polygon fill="black" stroke="black" points="564.24,-110.11 573.53,-105.01 563.09,-103.21 564.24,-110.11"/>
</g>
<!-- 1938248495632* -->
<g id="node4" class="node">
<title>1938248495632*</title>
<ellipse fill="none" stroke="black" cx="262.5" cy="-128.5" rx="27" ry="18"/>
<text text-anchor="middle" x="262.5" y="-123.08" font-family="Times New Roman,serif" font-size="14.00">*</text>
</g>
<!-- 1938248495632*&#45;&gt;1938248495632 -->
<g id="edge2" class="edge">
<title>1938248495632*&#45;&gt;1938248495632</title>
<path fill="none" stroke="black" d="M289.67,-128.5C296.79,-128.5 304.98,-128.5 313.76,-128.5"/>
<polygon fill="black" stroke="black" points="313.64,-132 323.64,-128.5 313.64,-125 313.64,-132"/>
</g>
<!-- 1938248495120 -->
<g id="node5" class="node">
<title>1938248495120</title>
<polygon fill="none" stroke="black" points="0,-165.5 0,-201.5 199.5,-201.5 199.5,-165.5 0,-165.5"/>
<text text-anchor="middle" x="16.25" y="-178.2" font-family="Times New Roman,serif" font-size="14.00">w1</text>
<polyline fill="none" stroke="black" points="32.5,-165.75 32.5,-201.5"/>
<text text-anchor="middle" x="75" y="-178.2" font-family="Times New Roman,serif" font-size="14.00">data &#45;3.0000</text>
<polyline fill="none" stroke="black" points="117.5,-165.75 117.5,-201.5"/>
<text text-anchor="middle" x="158.5" y="-178.2" font-family="Times New Roman,serif" font-size="14.00">grad 1.0000</text>
</g>
<!-- 1938248495120&#45;&gt;1938248495632* -->
<g id="edge14" class="edge">
<title>1938248495120&#45;&gt;1938248495632*</title>
<path fill="none" stroke="black" d="M173.43,-165.03C182.28,-162.37 191.14,-159.51 199.5,-156.5 209.59,-152.87 220.33,-148.29 229.98,-143.89"/>
<polygon fill="black" stroke="black" points="231.37,-147.1 238.95,-139.7 228.41,-140.76 231.37,-147.1"/>
</g>
<!-- 1938248495696 -->
<g id="node6" class="node">
<title>1938248495696</title>
<polygon fill="none" stroke="black" points="1669.88,-136.5 1669.88,-172.5 1854.38,-172.5 1854.38,-136.5 1669.88,-136.5"/>
<text text-anchor="middle" x="1680.88" y="-149.2" font-family="Times New Roman,serif" font-size="14.00">e</text>
<polyline fill="none" stroke="black" points="1691.88,-136.75 1691.88,-172.5"/>
<text text-anchor="middle" x="1732.12" y="-149.2" font-family="Times New Roman,serif" font-size="14.00">data 5.8284</text>
<polyline fill="none" stroke="black" points="1772.38,-136.75 1772.38,-172.5"/>
<text text-anchor="middle" x="1813.38" y="-149.2" font-family="Times New Roman,serif" font-size="14.00">grad 0.0429</text>
</g>
<!-- 1938248496208+ -->
<g id="node9" class="node">
<title>1938248496208+</title>
<ellipse fill="none" stroke="black" cx="1918.5" cy="-126.5" rx="27" ry="18"/>
<text text-anchor="middle" x="1918.5" y="-121.08" font-family="Times New Roman,serif" font-size="14.00">+</text>
</g>
<!-- 1938248495696&#45;&gt;1938248496208+ -->
<g id="edge20" class="edge">
<title>1938248495696&#45;&gt;1938248496208+</title>
<path fill="none" stroke="black" d="M1854.71,-137.89C1863.87,-136.23 1872.75,-134.62 1880.81,-133.15"/>
<polygon fill="black" stroke="black" points="1881.26,-136.63 1890.48,-131.4 1880.01,-129.74 1881.26,-136.63"/>
</g>
<!-- 1938248495952+ -->
<g id="node22" class="node">
<title>1938248495952+</title>
<ellipse fill="none" stroke="black" cx="1918.5" cy="-181.5" rx="27" ry="18"/>
<text text-anchor="middle" x="1918.5" y="-176.07" font-family="Times New Roman,serif" font-size="14.00">+</text>
</g>
<!-- 1938248495696&#45;&gt;1938248495952+ -->
<g id="edge11" class="edge">
<title>1938248495696&#45;&gt;1938248495952+</title>
<path fill="none" stroke="black" d="M1854.71,-170.52C1863.87,-172.12 1872.75,-173.67 1880.81,-175.08"/>
<polygon fill="black" stroke="black" points="1880.02,-178.5 1890.47,-176.77 1881.23,-171.6 1880.02,-178.5"/>
</g>
<!-- 1938248495696exp -->
<g id="node7" class="node">
<title>1938248495696exp</title>
<ellipse fill="none" stroke="black" cx="1605.75" cy="-154.5" rx="27" ry="18"/>
<text text-anchor="middle" x="1605.75" y="-149.07" font-family="Times New Roman,serif" font-size="14.00">exp</text>
</g>
<!-- 1938248495696exp&#45;&gt;1938248495696 -->
<g id="edge3" class="edge">
<title>1938248495696exp&#45;&gt;1938248495696</title>
<path fill="none" stroke="black" d="M1632.94,-154.5C1640.4,-154.5 1649.01,-154.5 1658.17,-154.5"/>
<polygon fill="black" stroke="black" points="1658.06,-158 1668.06,-154.5 1658.06,-151 1658.06,-158"/>
</g>
<!-- 1938248496208 -->
<g id="node8" class="node">
<title>1938248496208</title>
<polygon fill="none" stroke="black" points="2204.25,-108.5 2204.25,-144.5 2386.5,-144.5 2386.5,-108.5 2204.25,-108.5"/>
<text text-anchor="middle" x="2214.12" y="-121.2" font-family="Times New Roman,serif" font-size="14.00"> </text>
<polyline fill="none" stroke="black" points="2224,-108.75 2224,-144.5"/>
<text text-anchor="middle" x="2264.25" y="-121.2" font-family="Times New Roman,serif" font-size="14.00">data 4.8284</text>
<polyline fill="none" stroke="black" points="2304.5,-108.75 2304.5,-144.5"/>
<text text-anchor="middle" x="2345.5" y="-121.2" font-family="Times New Roman,serif" font-size="14.00">grad 0.1464</text>
</g>
<!-- 1938248496528* -->
<g id="node27" class="node">
<title>1938248496528*</title>
<ellipse fill="none" stroke="black" cx="2667.75" cy="-153.5" rx="27" ry="18"/>
<text text-anchor="middle" x="2667.75" y="-148.07" font-family="Times New Roman,serif" font-size="14.00">*</text>
</g>
<!-- 1938248496208&#45;&gt;1938248496528* -->
<g id="edge19" class="edge">
<title>1938248496208&#45;&gt;1938248496528*</title>
<path fill="none" stroke="black" d="M2386.98,-133.1C2464.75,-138.77 2572.96,-146.66 2629.29,-150.77"/>
<polygon fill="black" stroke="black" points="2628.75,-154.24 2638.98,-151.48 2629.26,-147.26 2628.75,-154.24"/>
</g>
<!-- 1938248496208+&#45;&gt;1938248496208 -->
<g id="edge4" class="edge">
<title>1938248496208+&#45;&gt;1938248496208</title>
<path fill="none" stroke="black" d="M1945.86,-126.5C1996.29,-126.5 2108.84,-126.5 2192.47,-126.5"/>
<polygon fill="black" stroke="black" points="2192.3,-130 2202.3,-126.5 2192.3,-123 2192.3,-130"/>
</g>
<!-- 1938248496272 -->
<g id="node10" class="node">
<title>1938248496272</title>
<polygon fill="none" stroke="black" points="1668.75,-191.5 1668.75,-227.5 1855.5,-227.5 1855.5,-191.5 1668.75,-191.5"/>
<text text-anchor="middle" x="1678.62" y="-204.2" font-family="Times New Roman,serif" font-size="14.00"> </text>
<polyline fill="none" stroke="black" points="1688.5,-191.75 1688.5,-227.5"/>
<text text-anchor="middle" x="1728.75" y="-204.2" font-family="Times New Roman,serif" font-size="14.00">data 1.0000</text>
<polyline fill="none" stroke="black" points="1769,-191.75 1769,-227.5"/>
<text text-anchor="middle" x="1812.25" y="-204.2" font-family="Times New Roman,serif" font-size="14.00">grad &#45;0.1036</text>
</g>
<!-- 1938248496272&#45;&gt;1938248495952+ -->
<g id="edge27" class="edge">
<title>1938248496272&#45;&gt;1938248495952+</title>
<path fill="none" stroke="black" d="M1855.6,-192.73C1864.47,-191.12 1873.06,-189.56 1880.87,-188.14"/>
<polygon fill="black" stroke="black" points="1881.37,-191.61 1890.58,-186.38 1880.12,-184.72 1881.37,-191.61"/>
</g>
<!-- 1938213129360 -->
<g id="node11" class="node">
<title>1938213129360</title>
<polygon fill="none" stroke="black" points="327.75,-55.5 327.75,-91.5 536.25,-91.5 536.25,-55.5 327.75,-55.5"/>
<text text-anchor="middle" x="350.75" y="-68.2" font-family="Times New Roman,serif" font-size="14.00">x2w2</text>
<polyline fill="none" stroke="black" points="373.75,-55.75 373.75,-91.5"/>
<text text-anchor="middle" x="414" y="-68.2" font-family="Times New Roman,serif" font-size="14.00">data 0.0000</text>
<polyline fill="none" stroke="black" points="454.25,-55.75 454.25,-91.5"/>
<text text-anchor="middle" x="495.25" y="-68.2" font-family="Times New Roman,serif" font-size="14.00">grad 0.5000</text>
</g>
<!-- 1938213129360&#45;&gt;1938184398352+ -->
<g id="edge25" class="edge">
<title>1938213129360&#45;&gt;1938184398352+</title>
<path fill="none" stroke="black" d="M536.7,-90.22C546.14,-91.74 555.22,-93.2 563.43,-94.52"/>
<polygon fill="black" stroke="black" points="562.84,-97.97 573.27,-96.11 563.95,-91.06 562.84,-97.97"/>
</g>
<!-- 1938213129360* -->
<g id="node12" class="node">
<title>1938213129360*</title>
<ellipse fill="none" stroke="black" cx="262.5" cy="-73.5" rx="27" ry="18"/>
<text text-anchor="middle" x="262.5" y="-68.08" font-family="Times New Roman,serif" font-size="14.00">*</text>
</g>
<!-- 1938213129360*&#45;&gt;1938213129360 -->
<g id="edge5" class="edge">
<title>1938213129360*&#45;&gt;1938213129360</title>
<path fill="none" stroke="black" d="M289.67,-73.5C297.34,-73.5 306.26,-73.5 315.82,-73.5"/>
<polygon fill="black" stroke="black" points="315.79,-77 325.79,-73.5 315.79,-70 315.79,-77"/>
</g>
<!-- 1938248496080 -->
<g id="node13" class="node">
<title>1938248496080</title>
<polygon fill="none" stroke="black" points="1668.75,-81.5 1668.75,-117.5 1855.5,-117.5 1855.5,-81.5 1668.75,-81.5"/>
<text text-anchor="middle" x="1678.62" y="-94.2" font-family="Times New Roman,serif" font-size="14.00"> </text>
<polyline fill="none" stroke="black" points="1688.5,-81.75 1688.5,-117.5"/>
<text text-anchor="middle" x="1731" y="-94.2" font-family="Times New Roman,serif" font-size="14.00">data &#45;1.0000</text>
<polyline fill="none" stroke="black" points="1773.5,-81.75 1773.5,-117.5"/>
<text text-anchor="middle" x="1814.5" y="-94.2" font-family="Times New Roman,serif" font-size="14.00">grad 0.1464</text>
</g>
<!-- 1938248496080&#45;&gt;1938248496208+ -->
<g id="edge24" class="edge">
<title>1938248496080&#45;&gt;1938248496208+</title>
<path fill="none" stroke="black" d="M1855.6,-115.67C1864.47,-117.22 1873.06,-118.73 1880.87,-120.09"/>
<polygon fill="black" stroke="black" points="1880.13,-123.52 1890.58,-121.79 1881.33,-116.62 1880.13,-123.52"/>
</g>
<!-- 1938248496336 -->
<g id="node14" class="node">
<title>1938248496336</title>
<polygon fill="none" stroke="black" points="2422.5,-161.5 2422.5,-197.5 2604.75,-197.5 2604.75,-161.5 2422.5,-161.5"/>
<text text-anchor="middle" x="2432.38" y="-174.2" font-family="Times New Roman,serif" font-size="14.00"> </text>
<polyline fill="none" stroke="black" points="2442.25,-161.75 2442.25,-197.5"/>
<text text-anchor="middle" x="2482.5" y="-174.2" font-family="Times New Roman,serif" font-size="14.00">data 0.1464</text>
<polyline fill="none" stroke="black" points="2522.75,-161.75 2522.75,-197.5"/>
<text text-anchor="middle" x="2563.75" y="-174.2" font-family="Times New Roman,serif" font-size="14.00">grad 4.8284</text>
</g>
<!-- 1938248496336&#45;&gt;1938248496528* -->
<g id="edge23" class="edge">
<title>1938248496336&#45;&gt;1938248496528*</title>
<path fill="none" stroke="black" d="M2604.87,-164.08C2613.71,-162.56 2622.28,-161.1 2630.09,-159.77"/>
<polygon fill="black" stroke="black" points="2630.53,-163.24 2639.8,-158.11 2629.35,-156.34 2630.53,-163.24"/>
</g>
<!-- 1938248496336**&#45;1 -->
<g id="node15" class="node">
<title>1938248496336**&#45;1</title>
<ellipse fill="none" stroke="black" cx="2295.38" cy="-181.5" rx="27.11" ry="18"/>
<text text-anchor="middle" x="2295.38" y="-176.07" font-family="Times New Roman,serif" font-size="14.00">**&#45;1</text>
</g>
<!-- 1938248496336**&#45;1&#45;&gt;1938248496336 -->
<g id="edge6" class="edge">
<title>1938248496336**&#45;1&#45;&gt;1938248496336</title>
<path fill="none" stroke="black" d="M2322.89,-181.25C2345.09,-181.05 2378.25,-180.74 2410.67,-180.44"/>
<polygon fill="black" stroke="black" points="2410.61,-183.94 2420.58,-180.35 2410.54,-176.94 2410.61,-183.94"/>
</g>
<!-- 1938248495824 -->
<g id="node16" class="node">
<title>1938248495824</title>
<polygon fill="none" stroke="black" points="2.25,-55.5 2.25,-91.5 197.25,-91.5 197.25,-55.5 2.25,-55.5"/>
<text text-anchor="middle" x="18.5" y="-68.2" font-family="Times New Roman,serif" font-size="14.00">w2</text>
<polyline fill="none" stroke="black" points="34.75,-55.75 34.75,-91.5"/>
<text text-anchor="middle" x="75" y="-68.2" font-family="Times New Roman,serif" font-size="14.00">data 1.0000</text>
<polyline fill="none" stroke="black" points="115.25,-55.75 115.25,-91.5"/>
<text text-anchor="middle" x="156.25" y="-68.2" font-family="Times New Roman,serif" font-size="14.00">grad 0.0000</text>
</g>
<!-- 1938248495824&#45;&gt;1938213129360* -->
<g id="edge28" class="edge">
<title>1938248495824&#45;&gt;1938213129360*</title>
<path fill="none" stroke="black" d="M197.51,-73.5C206.8,-73.5 215.79,-73.5 223.94,-73.5"/>
<polygon fill="black" stroke="black" points="223.72,-77 233.72,-73.5 223.72,-70 223.72,-77"/>
</g>
<!-- 1938248492752 -->
<g id="node17" class="node">
<title>1938248492752</title>
<polygon fill="none" stroke="black" points="3.75,-0.5 3.75,-36.5 195.75,-36.5 195.75,-0.5 3.75,-0.5"/>
<text text-anchor="middle" x="18.5" y="-13.2" font-family="Times New Roman,serif" font-size="14.00">x2</text>
<polyline fill="none" stroke="black" points="33.25,-0.75 33.25,-36.5"/>
<text text-anchor="middle" x="73.5" y="-13.2" font-family="Times New Roman,serif" font-size="14.00">data 0.0000</text>
<polyline fill="none" stroke="black" points="113.75,-0.75 113.75,-36.5"/>
<text text-anchor="middle" x="154.75" y="-13.2" font-family="Times New Roman,serif" font-size="14.00">grad 0.5000</text>
</g>
<!-- 1938248492752&#45;&gt;1938213129360* -->
<g id="edge12" class="edge">
<title>1938248492752&#45;&gt;1938213129360*</title>
<path fill="none" stroke="black" d="M170.45,-36.99C180.27,-39.97 190.19,-43.17 199.5,-46.5 209.46,-50.06 220.09,-54.46 229.68,-58.67"/>
<polygon fill="black" stroke="black" points="228.04,-61.77 238.6,-62.66 230.9,-55.38 228.04,-61.77"/>
</g>
<!-- 1938248495312 -->
<g id="node18" class="node">
<title>1938248495312</title>
<polygon fill="none" stroke="black" points="1050.75,-164.5 1050.75,-200.5 1233,-200.5 1233,-164.5 1050.75,-164.5"/>
<text text-anchor="middle" x="1060.62" y="-177.2" font-family="Times New Roman,serif" font-size="14.00"> </text>
<polyline fill="none" stroke="black" points="1070.5,-164.75 1070.5,-200.5"/>
<text text-anchor="middle" x="1110.75" y="-177.2" font-family="Times New Roman,serif" font-size="14.00">data 2.0000</text>
<polyline fill="none" stroke="black" points="1151,-164.75 1151,-200.5"/>
<text text-anchor="middle" x="1192" y="-177.2" font-family="Times New Roman,serif" font-size="14.00">grad 0.2203</text>
</g>
<!-- 1938248495888* -->
<g id="node20" class="node">
<title>1938248495888*</title>
<ellipse fill="none" stroke="black" cx="1297.5" cy="-154.5" rx="27" ry="18"/>
<text text-anchor="middle" x="1297.5" y="-149.07" font-family="Times New Roman,serif" font-size="14.00">*</text>
</g>
<!-- 1938248495312&#45;&gt;1938248495888* -->
<g id="edge16" class="edge">
<title>1938248495312&#45;&gt;1938248495888*</title>
<path fill="none" stroke="black" d="M1233.13,-166.05C1242.54,-164.34 1251.67,-162.67 1259.94,-161.16"/>
<polygon fill="black" stroke="black" points="1260.29,-164.66 1269.5,-159.42 1259.03,-157.77 1260.29,-164.66"/>
</g>
<!-- 1938248495888 -->
<g id="node19" class="node">
<title>1938248495888</title>
<polygon fill="none" stroke="black" points="1360.5,-136.5 1360.5,-172.5 1542.75,-172.5 1542.75,-136.5 1360.5,-136.5"/>
<text text-anchor="middle" x="1370.38" y="-149.2" font-family="Times New Roman,serif" font-size="14.00"> </text>
<polyline fill="none" stroke="black" points="1380.25,-136.75 1380.25,-172.5"/>
<text text-anchor="middle" x="1420.5" y="-149.2" font-family="Times New Roman,serif" font-size="14.00">data 1.7627</text>
<polyline fill="none" stroke="black" points="1460.75,-136.75 1460.75,-172.5"/>
<text text-anchor="middle" x="1501.75" y="-149.2" font-family="Times New Roman,serif" font-size="14.00">grad 0.2500</text>
</g>
<!-- 1938248495888&#45;&gt;1938248495696exp -->
<g id="edge15" class="edge">
<title>1938248495888&#45;&gt;1938248495696exp</title>
<path fill="none" stroke="black" d="M1542.87,-154.5C1551.26,-154.5 1559.4,-154.5 1566.87,-154.5"/>
<polygon fill="black" stroke="black" points="1566.87,-158 1576.87,-154.5 1566.87,-151 1566.87,-158"/>
</g>
<!-- 1938248495888*&#45;&gt;1938248495888 -->
<g id="edge7" class="edge">
<title>1938248495888*&#45;&gt;1938248495888</title>
<path fill="none" stroke="black" d="M1325,-154.5C1332.04,-154.5 1340.09,-154.5 1348.63,-154.5"/>
<polygon fill="black" stroke="black" points="1348.59,-158 1358.59,-154.5 1348.59,-151 1348.59,-158"/>
</g>
<!-- 1938248495952 -->
<g id="node21" class="node">
<title>1938248495952</title>
<polygon fill="none" stroke="black" points="1981.5,-163.5 1981.5,-199.5 2168.25,-199.5 2168.25,-163.5 1981.5,-163.5"/>
<text text-anchor="middle" x="1991.38" y="-176.2" font-family="Times New Roman,serif" font-size="14.00"> </text>
<polyline fill="none" stroke="black" points="2001.25,-163.75 2001.25,-199.5"/>
<text text-anchor="middle" x="2041.5" y="-176.2" font-family="Times New Roman,serif" font-size="14.00">data 6.8284</text>
<polyline fill="none" stroke="black" points="2081.75,-163.75 2081.75,-199.5"/>
<text text-anchor="middle" x="2125" y="-176.2" font-family="Times New Roman,serif" font-size="14.00">grad &#45;0.1036</text>
</g>
<!-- 1938248495952&#45;&gt;1938248496336**&#45;1 -->
<g id="edge22" class="edge">
<title>1938248495952&#45;&gt;1938248496336**&#45;1</title>
<path fill="none" stroke="black" d="M2168.54,-181.5C2199.53,-181.5 2232.33,-181.5 2256.68,-181.5"/>
<polygon fill="black" stroke="black" points="2256.39,-185 2266.39,-181.5 2256.39,-178 2256.39,-185"/>
</g>
<!-- 1938248495952+&#45;&gt;1938248495952 -->
<g id="edge8" class="edge">
<title>1938248495952+&#45;&gt;1938248495952</title>
<path fill="none" stroke="black" d="M1945.69,-181.5C1952.82,-181.5 1961.02,-181.5 1969.73,-181.5"/>
<polygon fill="black" stroke="black" points="1969.5,-185 1979.5,-181.5 1969.5,-178 1969.5,-185"/>
</g>
<!-- 1938248494992 -->
<g id="node23" class="node">
<title>1938248494992</title>
<polygon fill="none" stroke="black" points="1.5,-110.5 1.5,-146.5 198,-146.5 198,-110.5 1.5,-110.5"/>
<text text-anchor="middle" x="16.25" y="-123.2" font-family="Times New Roman,serif" font-size="14.00">x1</text>
<polyline fill="none" stroke="black" points="31,-110.75 31,-146.5"/>
<text text-anchor="middle" x="71.25" y="-123.2" font-family="Times New Roman,serif" font-size="14.00">data 2.0000</text>
<polyline fill="none" stroke="black" points="111.5,-110.75 111.5,-146.5"/>
<text text-anchor="middle" x="154.75" y="-123.2" font-family="Times New Roman,serif" font-size="14.00">grad &#45;1.5000</text>
</g>
<!-- 1938248494992&#45;&gt;1938248495632* -->
<g id="edge18" class="edge">
<title>1938248494992&#45;&gt;1938248495632*</title>
<path fill="none" stroke="black" d="M198.43,-128.5C207.33,-128.5 215.94,-128.5 223.79,-128.5"/>
<polygon fill="black" stroke="black" points="223.53,-132 233.53,-128.5 223.53,-125 223.53,-132"/>
</g>
<!-- 1938248496016 -->
<g id="node24" class="node">
<title>1938248496016</title>
<polygon fill="none" stroke="black" points="1049.25,-109.5 1049.25,-145.5 1234.5,-145.5 1234.5,-109.5 1049.25,-109.5"/>
<text text-anchor="middle" x="1060.62" y="-122.2" font-family="Times New Roman,serif" font-size="14.00">n</text>
<polyline fill="none" stroke="black" points="1072,-109.75 1072,-145.5"/>
<text text-anchor="middle" x="1112.25" y="-122.2" font-family="Times New Roman,serif" font-size="14.00">data 0.8814</text>
<polyline fill="none" stroke="black" points="1152.5,-109.75 1152.5,-145.5"/>
<text text-anchor="middle" x="1193.5" y="-122.2" font-family="Times New Roman,serif" font-size="14.00">grad 0.5000</text>
</g>
<!-- 1938248496016&#45;&gt;1938248495888* -->
<g id="edge17" class="edge">
<title>1938248496016&#45;&gt;1938248495888*</title>
<path fill="none" stroke="black" d="M1234.9,-143.67C1243.64,-145.21 1252.11,-146.7 1259.83,-148.05"/>
<polygon fill="black" stroke="black" points="1258.95,-151.45 1269.41,-149.74 1260.16,-144.56 1258.95,-151.45"/>
</g>
<!-- 1938248496016+&#45;&gt;1938248496016 -->
<g id="edge9" class="edge">
<title>1938248496016+&#45;&gt;1938248496016</title>
<path fill="none" stroke="black" d="M1013.66,-127.5C1020.7,-127.5 1028.75,-127.5 1037.3,-127.5"/>
<polygon fill="black" stroke="black" points="1037.29,-131 1047.29,-127.5 1037.29,-124 1037.29,-131"/>
</g>
<!-- 1938248496528 -->
<g id="node26" class="node">
<title>1938248496528</title>
<polygon fill="none" stroke="black" points="2730.75,-135.5 2730.75,-171.5 2916.75,-171.5 2916.75,-135.5 2730.75,-135.5"/>
<text text-anchor="middle" x="2742.5" y="-148.2" font-family="Times New Roman,serif" font-size="14.00">o</text>
<polyline fill="none" stroke="black" points="2754.25,-135.75 2754.25,-171.5"/>
<text text-anchor="middle" x="2794.5" y="-148.2" font-family="Times New Roman,serif" font-size="14.00">data 0.7071</text>
<polyline fill="none" stroke="black" points="2834.75,-135.75 2834.75,-171.5"/>
<text text-anchor="middle" x="2875.75" y="-148.2" font-family="Times New Roman,serif" font-size="14.00">grad 1.0000</text>
</g>
<!-- 1938248496528*&#45;&gt;1938248496528 -->
<g id="edge10" class="edge">
<title>1938248496528*&#45;&gt;1938248496528</title>
<path fill="none" stroke="black" d="M2695.22,-153.5C2702.36,-153.5 2710.53,-153.5 2719.21,-153.5"/>
<polygon fill="black" stroke="black" points="2718.94,-157 2728.94,-153.5 2718.94,-150 2718.94,-157"/>
</g>
<!-- 1938248495568 -->
<g id="node28" class="node">
<title>1938248495568</title>
<polygon fill="none" stroke="black" points="700.88,-137.5 700.88,-173.5 886.88,-173.5 886.88,-137.5 700.88,-137.5"/>
<text text-anchor="middle" x="712.62" y="-150.2" font-family="Times New Roman,serif" font-size="14.00">b</text>
<polyline fill="none" stroke="black" points="724.38,-137.75 724.38,-173.5"/>
<text text-anchor="middle" x="764.62" y="-150.2" font-family="Times New Roman,serif" font-size="14.00">data 6.8814</text>
<polyline fill="none" stroke="black" points="804.88,-137.75 804.88,-173.5"/>
<text text-anchor="middle" x="845.88" y="-150.2" font-family="Times New Roman,serif" font-size="14.00">grad 0.5000</text>
</g>
<!-- 1938248495568&#45;&gt;1938248496016+ -->
<g id="edge21" class="edge">
<title>1938248495568&#45;&gt;1938248496016+</title>
<path fill="none" stroke="black" d="M887.27,-141.91C908.83,-138.74 930.57,-135.54 948.08,-132.97"/>
<polygon fill="black" stroke="black" points="948.59,-136.43 957.97,-131.51 947.57,-129.5 948.59,-136.43"/>
</g>
</g>
</svg>
