<?xml version="1.0" encoding="UTF-8" standalone="no"?>
<!DOCTYPE svg PUBLIC "-//W3C//DTD SVG 1.1//EN"
 "http://www.w3.org/Graphics/SVG/1.1/DTD/svg11.dtd">
<!-- Generated by graphviz version 11.0.0 (20240428.1522)
 -->
<!-- Pages: 1 -->
<svg width="1152pt" height="154pt"
 viewBox="0.00 0.00 1151.75 154.00" xmlns="http://www.w3.org/2000/svg" xmlns:xlink="http://www.w3.org/1999/xlink">
<g id="graph0" class="graph" transform="scale(1 1) rotate(0) translate(4 150)">
<polygon fill="white" stroke="none" points="-4,4 -4,-150 1147.75,-150 1147.75,4 -4,4"/>
<!-- 1938212339792 -->
<g id="node1" class="node">
<title>1938212339792</title>
<polygon fill="none" stroke="black" points="640.5,-54.5 640.5,-90.5 831,-90.5 831,-54.5 640.5,-54.5"/>
<text text-anchor="middle" x="652.25" y="-67.2" font-family="Times New Roman,serif" font-size="14.00">d</text>
<polyline fill="none" stroke="black" points="664,-54.75 664,-90.5"/>
<text text-anchor="middle" x="704.25" y="-67.2" font-family="Times New Roman,serif" font-size="14.00">data 3.7176</text>
<polyline fill="none" stroke="black" points="744.5,-54.75 744.5,-90.5"/>
<text text-anchor="middle" x="787.75" y="-67.2" font-family="Times New Roman,serif" font-size="14.00">grad &#45;2.0000</text>
</g>
<!-- 1938212342480* -->
<g id="node5" class="node">
<title>1938212342480*</title>
<ellipse fill="none" stroke="black" cx="894" cy="-99.5" rx="27" ry="18"/>
<text text-anchor="middle" x="894" y="-94.08" font-family="Times New Roman,serif" font-size="14.00">*</text>
</g>
<!-- 1938212339792&#45;&gt;1938212342480* -->
<g id="edge6" class="edge">
<title>1938212339792&#45;&gt;1938212342480*</title>
<path fill="none" stroke="black" d="M831.25,-88.83C840.04,-90.35 848.54,-91.82 856.28,-93.15"/>
<polygon fill="black" stroke="black" points="855.44,-96.56 865.89,-94.81 856.63,-89.66 855.44,-96.56"/>
</g>
<!-- 1938212339792+ -->
<g id="node2" class="node">
<title>1938212339792+</title>
<ellipse fill="none" stroke="black" cx="577.5" cy="-72.5" rx="27" ry="18"/>
<text text-anchor="middle" x="577.5" y="-67.08" font-family="Times New Roman,serif" font-size="14.00">+</text>
</g>
<!-- 1938212339792+&#45;&gt;1938212339792 -->
<g id="edge1" class="edge">
<title>1938212339792+&#45;&gt;1938212339792</title>
<path fill="none" stroke="black" d="M604.65,-72.5C611.8,-72.5 620.01,-72.5 628.75,-72.5"/>
<polygon fill="black" stroke="black" points="628.56,-76 638.56,-72.5 628.56,-69 628.56,-76"/>
</g>
<!-- 1937924676176 -->
<g id="node3" class="node">
<title>1937924676176</title>
<polygon fill="none" stroke="black" points="642,-109.5 642,-145.5 829.5,-145.5 829.5,-109.5 642,-109.5"/>
<text text-anchor="middle" x="652.25" y="-122.2" font-family="Times New Roman,serif" font-size="14.00">f</text>
<polyline fill="none" stroke="black" points="662.5,-109.75 662.5,-145.5"/>
<text text-anchor="middle" x="705" y="-122.2" font-family="Times New Roman,serif" font-size="14.00">data &#45;1.9600</text>
<polyline fill="none" stroke="black" points="747.5,-109.75 747.5,-145.5"/>
<text text-anchor="middle" x="788.5" y="-122.2" font-family="Times New Roman,serif" font-size="14.00">grad 4.0000</text>
</g>
<!-- 1937924676176&#45;&gt;1938212342480* -->
<g id="edge7" class="edge">
<title>1937924676176&#45;&gt;1938212342480*</title>
<path fill="none" stroke="black" d="M829.9,-110.81C839.21,-109.14 848.22,-107.52 856.38,-106.06"/>
<polygon fill="black" stroke="black" points="856.95,-109.52 866.18,-104.31 855.71,-102.63 856.95,-109.52"/>
</g>
<!-- 1938212342480 -->
<g id="node4" class="node">
<title>1938212342480</title>
<polygon fill="none" stroke="black" points="957,-81.5 957,-117.5 1143.75,-117.5 1143.75,-81.5 957,-81.5"/>
<text text-anchor="middle" x="966.88" y="-94.2" font-family="Times New Roman,serif" font-size="14.00"> </text>
<polyline fill="none" stroke="black" points="976.75,-81.75 976.75,-117.5"/>
<text text-anchor="middle" x="1019.25" y="-94.2" font-family="Times New Roman,serif" font-size="14.00">data &#45;7.2865</text>
<polyline fill="none" stroke="black" points="1061.75,-81.75 1061.75,-117.5"/>
<text text-anchor="middle" x="1102.75" y="-94.2" font-family="Times New Roman,serif" font-size="14.00">grad 0.0000</text>
</g>
<!-- 1938212342480*&#45;&gt;1938212342480 -->
<g id="edge2" class="edge">
<title>1938212342480*&#45;&gt;1938212342480</title>
<path fill="none" stroke="black" d="M921.19,-99.5C928.32,-99.5 936.52,-99.5 945.23,-99.5"/>
<polygon fill="black" stroke="black" points="945,-103 955,-99.5 945,-96 945,-103"/>
</g>
<!-- 1938183208144 -->
<g id="node6" class="node">
<title>1938183208144</title>
<polygon fill="none" stroke="black" points="5.25,-55.5 5.25,-91.5 189.75,-91.5 189.75,-55.5 5.25,-55.5"/>
<text text-anchor="middle" x="16.25" y="-68.2" font-family="Times New Roman,serif" font-size="14.00">a</text>
<polyline fill="none" stroke="black" points="27.25,-55.75 27.25,-91.5"/>
<text text-anchor="middle" x="67.5" y="-68.2" font-family="Times New Roman,serif" font-size="14.00">data 2.0600</text>
<polyline fill="none" stroke="black" points="107.75,-55.75 107.75,-91.5"/>
<text text-anchor="middle" x="148.75" y="-68.2" font-family="Times New Roman,serif" font-size="14.00">grad 6.0000</text>
</g>
<!-- 1938212352848* -->
<g id="node9" class="node">
<title>1938212352848*</title>
<ellipse fill="none" stroke="black" cx="258" cy="-45.5" rx="27" ry="18"/>
<text text-anchor="middle" x="258" y="-40.08" font-family="Times New Roman,serif" font-size="14.00">*</text>
</g>
<!-- 1938183208144&#45;&gt;1938212352848* -->
<g id="edge5" class="edge">
<title>1938183208144&#45;&gt;1938212352848*</title>
<path fill="none" stroke="black" d="M190.24,-57.29C200.93,-55.41 211.3,-53.57 220.56,-51.94"/>
<polygon fill="black" stroke="black" points="220.91,-55.43 230.15,-50.24 219.69,-48.54 220.91,-55.43"/>
</g>
<!-- 1938212076240 -->
<g id="node7" class="node">
<title>1938212076240</title>
<polygon fill="none" stroke="black" points="322.88,-82.5 322.88,-118.5 512.62,-118.5 512.62,-82.5 322.88,-82.5"/>
<text text-anchor="middle" x="334.25" y="-95.2" font-family="Times New Roman,serif" font-size="14.00">c</text>
<polyline fill="none" stroke="black" points="345.62,-82.75 345.62,-118.5"/>
<text text-anchor="middle" x="385.88" y="-95.2" font-family="Times New Roman,serif" font-size="14.00">data 9.9800</text>
<polyline fill="none" stroke="black" points="426.12,-82.75 426.12,-118.5"/>
<text text-anchor="middle" x="469.38" y="-95.2" font-family="Times New Roman,serif" font-size="14.00">grad &#45;2.0000</text>
</g>
<!-- 1938212076240&#45;&gt;1938212339792+ -->
<g id="edge8" class="edge">
<title>1938212076240&#45;&gt;1938212339792+</title>
<path fill="none" stroke="black" d="M512.79,-83.81C522.3,-82.12 531.5,-80.49 539.82,-79.01"/>
<polygon fill="black" stroke="black" points="540.2,-82.5 549.43,-77.3 538.97,-75.61 540.2,-82.5"/>
</g>
<!-- 1938212352848 -->
<g id="node8" class="node">
<title>1938212352848</title>
<polygon fill="none" stroke="black" points="321,-27.5 321,-63.5 514.5,-63.5 514.5,-27.5 321,-27.5"/>
<text text-anchor="middle" x="332" y="-40.2" font-family="Times New Roman,serif" font-size="14.00">e</text>
<polyline fill="none" stroke="black" points="343,-27.75 343,-63.5"/>
<text text-anchor="middle" x="385.5" y="-40.2" font-family="Times New Roman,serif" font-size="14.00">data &#45;6.2624</text>
<polyline fill="none" stroke="black" points="428,-27.75 428,-63.5"/>
<text text-anchor="middle" x="471.25" y="-40.2" font-family="Times New Roman,serif" font-size="14.00">grad &#45;2.0000</text>
</g>
<!-- 1938212352848&#45;&gt;1938212339792+ -->
<g id="edge9" class="edge">
<title>1938212352848&#45;&gt;1938212339792+</title>
<path fill="none" stroke="black" d="M514.61,-61.91C523.43,-63.42 531.96,-64.88 539.72,-66.2"/>
<polygon fill="black" stroke="black" points="538.9,-69.62 549.35,-67.85 540.09,-62.72 538.9,-69.62"/>
</g>
<!-- 1938212352848*&#45;&gt;1938212352848 -->
<g id="edge3" class="edge">
<title>1938212352848*&#45;&gt;1938212352848</title>
<path fill="none" stroke="black" d="M285.4,-45.5C292.56,-45.5 300.77,-45.5 309.51,-45.5"/>
<polygon fill="black" stroke="black" points="309.32,-49 319.32,-45.5 309.32,-42 309.32,-49"/>
</g>
<!-- 1938212150736 -->
<g id="node10" class="node">
<title>1938212150736</title>
<polygon fill="none" stroke="black" points="0,-0.5 0,-36.5 195,-36.5 195,-0.5 0,-0.5"/>
<text text-anchor="middle" x="11.75" y="-13.2" font-family="Times New Roman,serif" font-size="14.00">b</text>
<polyline fill="none" stroke="black" points="23.5,-0.75 23.5,-36.5"/>
<text text-anchor="middle" x="66" y="-13.2" font-family="Times New Roman,serif" font-size="14.00">data &#45;3.0400</text>
<polyline fill="none" stroke="black" points="108.5,-0.75 108.5,-36.5"/>
<text text-anchor="middle" x="151.75" y="-13.2" font-family="Times New Roman,serif" font-size="14.00">grad &#45;4.0000</text>
</g>
<!-- 1938212150736&#45;&gt;1938212352848* -->
<g id="edge4" class="edge">
<title>1938212150736&#45;&gt;1938212352848*</title>
<path fill="none" stroke="black" d="M195.27,-34.98C204.08,-36.49 212.6,-37.94 220.34,-39.25"/>
<polygon fill="black" stroke="black" points="219.49,-42.66 229.94,-40.89 220.67,-35.76 219.49,-42.66"/>
</g>
</g>
</svg>
