<?xml version="1.0" encoding="UTF-8" standalone="no"?>
<!DOCTYPE svg PUBLIC "-//W3C//DTD SVG 1.1//EN"
 "http://www.w3.org/Graphics/SVG/1.1/DTD/svg11.dtd">
<!-- Generated by graphviz version 11.0.0 (20240428.1522)
 -->
<!-- Pages: 1 -->
<svg width="2925pt" height="210pt"
 viewBox="0.00 0.00 2924.75 210.00" xmlns="http://www.w3.org/2000/svg" xmlns:xlink="http://www.w3.org/1999/xlink">
<g id="graph0" class="graph" transform="scale(1 1) rotate(0) translate(4 206)">
<polygon fill="white" stroke="none" points="-4,4 -4,-206 2920.75,-206 2920.75,4 -4,4"/>
<!-- 1397203674128 -->
<g id="node1" class="node">
<title>1397203674128</title>
<polygon fill="none" stroke="black" points="1360.5,-81.5 1360.5,-117.5 1542.75,-117.5 1542.75,-81.5 1360.5,-81.5"/>
<text text-anchor="middle" x="1370.38" y="-94.2" font-family="Times New Roman,serif" font-size="14.00"> </text>
<polyline fill="none" stroke="black" points="1380.25,-81.75 1380.25,-117.5"/>
<text text-anchor="middle" x="1420.5" y="-94.2" font-family="Times New Roman,serif" font-size="14.00">data 1.7627</text>
<polyline fill="none" stroke="black" points="1460.75,-81.75 1460.75,-117.5"/>
<text text-anchor="middle" x="1501.75" y="-94.2" font-family="Times New Roman,serif" font-size="14.00">grad 0.2500</text>
</g>
<!-- 1397203641552exp -->
<g id="node14" class="node">
<title>1397203641552exp</title>
<ellipse fill="none" stroke="black" cx="1605.75" cy="-99.5" rx="27" ry="18"/>
<text text-anchor="middle" x="1605.75" y="-94.08" font-family="Times New Roman,serif" font-size="14.00">exp</text>
</g>
<!-- 1397203674128&#45;&gt;1397203641552exp -->
<g id="edge22" class="edge">
<title>1397203674128&#45;&gt;1397203641552exp</title>
<path fill="none" stroke="black" d="M1542.87,-99.5C1551.26,-99.5 1559.4,-99.5 1566.87,-99.5"/>
<polygon fill="black" stroke="black" points="1566.87,-103 1576.87,-99.5 1566.87,-96 1566.87,-103"/>
</g>
<!-- 1397203674128* -->
<g id="node2" class="node">
<title>1397203674128*</title>
<ellipse fill="none" stroke="black" cx="1297.5" cy="-99.5" rx="27" ry="18"/>
<text text-anchor="middle" x="1297.5" y="-94.08" font-family="Times New Roman,serif" font-size="14.00">*</text>
</g>
<!-- 1397203674128*&#45;&gt;1397203674128 -->
<g id="edge1" class="edge">
<title>1397203674128*&#45;&gt;1397203674128</title>
<path fill="none" stroke="black" d="M1325,-99.5C1332.04,-99.5 1340.09,-99.5 1348.63,-99.5"/>
<polygon fill="black" stroke="black" points="1348.59,-103 1358.59,-99.5 1348.59,-96 1348.59,-103"/>
</g>
<!-- 1397203675152 -->
<g id="node3" class="node">
<title>1397203675152</title>
<polygon fill="none" stroke="black" points="1668.75,-26.5 1668.75,-62.5 1855.5,-62.5 1855.5,-26.5 1668.75,-26.5"/>
<text text-anchor="middle" x="1678.62" y="-39.2" font-family="Times New Roman,serif" font-size="14.00"> </text>
<polyline fill="none" stroke="black" points="1688.5,-26.75 1688.5,-62.5"/>
<text text-anchor="middle" x="1728.75" y="-39.2" font-family="Times New Roman,serif" font-size="14.00">data 1.0000</text>
<polyline fill="none" stroke="black" points="1769,-26.75 1769,-62.5"/>
<text text-anchor="middle" x="1812.25" y="-39.2" font-family="Times New Roman,serif" font-size="14.00">grad &#45;0.1036</text>
</g>
<!-- 1397203675216+ -->
<g id="node8" class="node">
<title>1397203675216+</title>
<ellipse fill="none" stroke="black" cx="1918.5" cy="-71.5" rx="27" ry="18"/>
<text text-anchor="middle" x="1918.5" y="-66.08" font-family="Times New Roman,serif" font-size="14.00">+</text>
</g>
<!-- 1397203675152&#45;&gt;1397203675216+ -->
<g id="edge16" class="edge">
<title>1397203675152&#45;&gt;1397203675216+</title>
<path fill="none" stroke="black" d="M1855.6,-60.67C1864.47,-62.22 1873.06,-63.73 1880.87,-65.09"/>
<polygon fill="black" stroke="black" points="1880.13,-68.52 1890.58,-66.79 1881.33,-61.62 1880.13,-68.52"/>
</g>
<!-- 1397203510352 -->
<g id="node4" class="node">
<title>1397203510352</title>
<polygon fill="none" stroke="black" points="3.75,-55.5 3.75,-91.5 195.75,-91.5 195.75,-55.5 3.75,-55.5"/>
<text text-anchor="middle" x="18.5" y="-68.2" font-family="Times New Roman,serif" font-size="14.00">x2</text>
<polyline fill="none" stroke="black" points="33.25,-55.75 33.25,-91.5"/>
<text text-anchor="middle" x="73.5" y="-68.2" font-family="Times New Roman,serif" font-size="14.00">data 0.0000</text>
<polyline fill="none" stroke="black" points="113.75,-55.75 113.75,-91.5"/>
<text text-anchor="middle" x="154.75" y="-68.2" font-family="Times New Roman,serif" font-size="14.00">grad 0.5000</text>
</g>
<!-- 1397203674512* -->
<g id="node20" class="node">
<title>1397203674512*</title>
<ellipse fill="none" stroke="black" cx="262.5" cy="-73.5" rx="27" ry="18"/>
<text text-anchor="middle" x="262.5" y="-68.08" font-family="Times New Roman,serif" font-size="14.00">*</text>
</g>
<!-- 1397203510352&#45;&gt;1397203674512* -->
<g id="edge21" class="edge">
<title>1397203510352&#45;&gt;1397203674512*</title>
<path fill="none" stroke="black" d="M196.12,-73.5C205.86,-73.5 215.3,-73.5 223.83,-73.5"/>
<polygon fill="black" stroke="black" points="223.71,-77 233.71,-73.5 223.71,-70 223.71,-77"/>
</g>
<!-- 1397203674192 -->
<g id="node5" class="node">
<title>1397203674192</title>
<polygon fill="none" stroke="black" points="1.5,-165.5 1.5,-201.5 198,-201.5 198,-165.5 1.5,-165.5"/>
<text text-anchor="middle" x="16.25" y="-178.2" font-family="Times New Roman,serif" font-size="14.00">x1</text>
<polyline fill="none" stroke="black" points="31,-165.75 31,-201.5"/>
<text text-anchor="middle" x="71.25" y="-178.2" font-family="Times New Roman,serif" font-size="14.00">data 2.0000</text>
<polyline fill="none" stroke="black" points="111.5,-165.75 111.5,-201.5"/>
<text text-anchor="middle" x="154.75" y="-178.2" font-family="Times New Roman,serif" font-size="14.00">grad &#45;1.5000</text>
</g>
<!-- 1397203674832* -->
<g id="node16" class="node">
<title>1397203674832*</title>
<ellipse fill="none" stroke="black" cx="262.5" cy="-128.5" rx="27" ry="18"/>
<text text-anchor="middle" x="262.5" y="-123.08" font-family="Times New Roman,serif" font-size="14.00">*</text>
</g>
<!-- 1397203674192&#45;&gt;1397203674832* -->
<g id="edge24" class="edge">
<title>1397203674192&#45;&gt;1397203674832*</title>
<path fill="none" stroke="black" d="M173.43,-165.03C182.28,-162.37 191.14,-159.51 199.5,-156.5 209.59,-152.87 220.33,-148.29 229.98,-143.89"/>
<polygon fill="black" stroke="black" points="231.37,-147.1 238.95,-139.7 228.41,-140.76 231.37,-147.1"/>
</g>
<!-- 1397203674704 -->
<g id="node6" class="node">
<title>1397203674704</title>
<polygon fill="none" stroke="black" points="700.88,-137.5 700.88,-173.5 886.88,-173.5 886.88,-137.5 700.88,-137.5"/>
<text text-anchor="middle" x="712.62" y="-150.2" font-family="Times New Roman,serif" font-size="14.00">b</text>
<polyline fill="none" stroke="black" points="724.38,-137.75 724.38,-173.5"/>
<text text-anchor="middle" x="764.62" y="-150.2" font-family="Times New Roman,serif" font-size="14.00">data 6.8814</text>
<polyline fill="none" stroke="black" points="804.88,-137.75 804.88,-173.5"/>
<text text-anchor="middle" x="845.88" y="-150.2" font-family="Times New Roman,serif" font-size="14.00">grad 0.5000</text>
</g>
<!-- 1397203674960+ -->
<g id="node27" class="node">
<title>1397203674960+</title>
<ellipse fill="none" stroke="black" cx="986.25" cy="-127.5" rx="27" ry="18"/>
<text text-anchor="middle" x="986.25" y="-122.08" font-family="Times New Roman,serif" font-size="14.00">+</text>
</g>
<!-- 1397203674704&#45;&gt;1397203674960+ -->
<g id="edge15" class="edge">
<title>1397203674704&#45;&gt;1397203674960+</title>
<path fill="none" stroke="black" d="M887.27,-141.91C908.83,-138.74 930.57,-135.54 948.08,-132.97"/>
<polygon fill="black" stroke="black" points="948.59,-136.43 957.97,-131.51 947.57,-129.5 948.59,-136.43"/>
</g>
<!-- 1397203675216 -->
<g id="node7" class="node">
<title>1397203675216</title>
<polygon fill="none" stroke="black" points="1981.5,-53.5 1981.5,-89.5 2168.25,-89.5 2168.25,-53.5 1981.5,-53.5"/>
<text text-anchor="middle" x="1991.38" y="-66.2" font-family="Times New Roman,serif" font-size="14.00"> </text>
<polyline fill="none" stroke="black" points="2001.25,-53.75 2001.25,-89.5"/>
<text text-anchor="middle" x="2041.5" y="-66.2" font-family="Times New Roman,serif" font-size="14.00">data 6.8284</text>
<polyline fill="none" stroke="black" points="2081.75,-53.75 2081.75,-89.5"/>
<text text-anchor="middle" x="2125" y="-66.2" font-family="Times New Roman,serif" font-size="14.00">grad &#45;0.1036</text>
</g>
<!-- 1397203675344**&#45;1 -->
<g id="node18" class="node">
<title>1397203675344**&#45;1</title>
<ellipse fill="none" stroke="black" cx="2295.38" cy="-71.5" rx="27.11" ry="18"/>
<text text-anchor="middle" x="2295.38" y="-66.08" font-family="Times New Roman,serif" font-size="14.00">**&#45;1</text>
</g>
<!-- 1397203675216&#45;&gt;1397203675344**&#45;1 -->
<g id="edge14" class="edge">
<title>1397203675216&#45;&gt;1397203675344**&#45;1</title>
<path fill="none" stroke="black" d="M2168.54,-71.5C2199.53,-71.5 2232.33,-71.5 2256.68,-71.5"/>
<polygon fill="black" stroke="black" points="2256.39,-75 2266.39,-71.5 2256.39,-68 2256.39,-75"/>
</g>
<!-- 1397203675216+&#45;&gt;1397203675216 -->
<g id="edge2" class="edge">
<title>1397203675216+&#45;&gt;1397203675216</title>
<path fill="none" stroke="black" d="M1945.69,-71.5C1952.82,-71.5 1961.02,-71.5 1969.73,-71.5"/>
<polygon fill="black" stroke="black" points="1969.5,-75 1979.5,-71.5 1969.5,-68 1969.5,-75"/>
</g>
<!-- 1397202723472 -->
<g id="node9" class="node">
<title>1397202723472</title>
<polygon fill="none" stroke="black" points="1668.75,-136.5 1668.75,-172.5 1855.5,-172.5 1855.5,-136.5 1668.75,-136.5"/>
<text text-anchor="middle" x="1678.62" y="-149.2" font-family="Times New Roman,serif" font-size="14.00"> </text>
<polyline fill="none" stroke="black" points="1688.5,-136.75 1688.5,-172.5"/>
<text text-anchor="middle" x="1731" y="-149.2" font-family="Times New Roman,serif" font-size="14.00">data &#45;1.0000</text>
<polyline fill="none" stroke="black" points="1773.5,-136.75 1773.5,-172.5"/>
<text text-anchor="middle" x="1814.5" y="-149.2" font-family="Times New Roman,serif" font-size="14.00">grad 0.1464</text>
</g>
<!-- 1397203466576+ -->
<g id="node25" class="node">
<title>1397203466576+</title>
<ellipse fill="none" stroke="black" cx="1918.5" cy="-126.5" rx="27" ry="18"/>
<text text-anchor="middle" x="1918.5" y="-121.08" font-family="Times New Roman,serif" font-size="14.00">+</text>
</g>
<!-- 1397202723472&#45;&gt;1397203466576+ -->
<g id="edge27" class="edge">
<title>1397202723472&#45;&gt;1397203466576+</title>
<path fill="none" stroke="black" d="M1855.6,-137.73C1864.47,-136.12 1873.06,-134.56 1880.87,-133.14"/>
<polygon fill="black" stroke="black" points="1881.37,-136.61 1890.58,-131.38 1880.12,-129.72 1881.37,-136.61"/>
</g>
<!-- 1397203674768 -->
<g id="node10" class="node">
<title>1397203674768</title>
<polygon fill="none" stroke="black" points="664.5,-82.5 664.5,-118.5 923.25,-118.5 923.25,-82.5 664.5,-82.5"/>
<text text-anchor="middle" x="710.38" y="-95.2" font-family="Times New Roman,serif" font-size="14.00">x1w1 + x2w2</text>
<polyline fill="none" stroke="black" points="756.25,-82.75 756.25,-118.5"/>
<text text-anchor="middle" x="798.75" y="-95.2" font-family="Times New Roman,serif" font-size="14.00">data &#45;6.0000</text>
<polyline fill="none" stroke="black" points="841.25,-82.75 841.25,-118.5"/>
<text text-anchor="middle" x="882.25" y="-95.2" font-family="Times New Roman,serif" font-size="14.00">grad 0.5000</text>
</g>
<!-- 1397203674768&#45;&gt;1397203674960+ -->
<g id="edge11" class="edge">
<title>1397203674768&#45;&gt;1397203674960+</title>
<path fill="none" stroke="black" d="M923.7,-118.77C932.33,-120 940.54,-121.16 947.99,-122.21"/>
<polygon fill="black" stroke="black" points="947.48,-125.68 957.87,-123.62 948.46,-118.75 947.48,-125.68"/>
</g>
<!-- 1397203674768+ -->
<g id="node11" class="node">
<title>1397203674768+</title>
<ellipse fill="none" stroke="black" cx="601.5" cy="-100.5" rx="27" ry="18"/>
<text text-anchor="middle" x="601.5" y="-95.08" font-family="Times New Roman,serif" font-size="14.00">+</text>
</g>
<!-- 1397203674768+&#45;&gt;1397203674768 -->
<g id="edge3" class="edge">
<title>1397203674768+&#45;&gt;1397203674768</title>
<path fill="none" stroke="black" d="M628.97,-100.5C636.01,-100.5 644.12,-100.5 652.9,-100.5"/>
<polygon fill="black" stroke="black" points="652.81,-104 662.81,-100.5 652.81,-97 652.81,-104"/>
</g>
<!-- 1397203673744 -->
<g id="node12" class="node">
<title>1397203673744</title>
<polygon fill="none" stroke="black" points="0,-110.5 0,-146.5 199.5,-146.5 199.5,-110.5 0,-110.5"/>
<text text-anchor="middle" x="16.25" y="-123.2" font-family="Times New Roman,serif" font-size="14.00">w1</text>
<polyline fill="none" stroke="black" points="32.5,-110.75 32.5,-146.5"/>
<text text-anchor="middle" x="75" y="-123.2" font-family="Times New Roman,serif" font-size="14.00">data &#45;3.0000</text>
<polyline fill="none" stroke="black" points="117.5,-110.75 117.5,-146.5"/>
<text text-anchor="middle" x="158.5" y="-123.2" font-family="Times New Roman,serif" font-size="14.00">grad 1.0000</text>
</g>
<!-- 1397203673744&#45;&gt;1397203674832* -->
<g id="edge26" class="edge">
<title>1397203673744&#45;&gt;1397203674832*</title>
<path fill="none" stroke="black" d="M199.81,-128.5C208.19,-128.5 216.28,-128.5 223.69,-128.5"/>
<polygon fill="black" stroke="black" points="223.58,-132 233.58,-128.5 223.58,-125 223.58,-132"/>
</g>
<!-- 1397203641552 -->
<g id="node13" class="node">
<title>1397203641552</title>
<polygon fill="none" stroke="black" points="1669.88,-81.5 1669.88,-117.5 1854.38,-117.5 1854.38,-81.5 1669.88,-81.5"/>
<text text-anchor="middle" x="1680.88" y="-94.2" font-family="Times New Roman,serif" font-size="14.00">e</text>
<polyline fill="none" stroke="black" points="1691.88,-81.75 1691.88,-117.5"/>
<text text-anchor="middle" x="1732.12" y="-94.2" font-family="Times New Roman,serif" font-size="14.00">data 5.8284</text>
<polyline fill="none" stroke="black" points="1772.38,-81.75 1772.38,-117.5"/>
<text text-anchor="middle" x="1813.38" y="-94.2" font-family="Times New Roman,serif" font-size="14.00">grad 0.0429</text>
</g>
<!-- 1397203641552&#45;&gt;1397203675216+ -->
<g id="edge23" class="edge">
<title>1397203641552&#45;&gt;1397203675216+</title>
<path fill="none" stroke="black" d="M1854.71,-82.89C1863.87,-81.23 1872.75,-79.62 1880.81,-78.15"/>
<polygon fill="black" stroke="black" points="1881.26,-81.63 1890.48,-76.4 1880.01,-74.74 1881.26,-81.63"/>
</g>
<!-- 1397203641552&#45;&gt;1397203466576+ -->
<g id="edge20" class="edge">
<title>1397203641552&#45;&gt;1397203466576+</title>
<path fill="none" stroke="black" d="M1854.71,-115.52C1863.87,-117.12 1872.75,-118.67 1880.81,-120.08"/>
<polygon fill="black" stroke="black" points="1880.02,-123.5 1890.47,-121.77 1881.23,-116.6 1880.02,-123.5"/>
</g>
<!-- 1397203641552exp&#45;&gt;1397203641552 -->
<g id="edge4" class="edge">
<title>1397203641552exp&#45;&gt;1397203641552</title>
<path fill="none" stroke="black" d="M1632.94,-99.5C1640.4,-99.5 1649.01,-99.5 1658.17,-99.5"/>
<polygon fill="black" stroke="black" points="1658.06,-103 1668.06,-99.5 1658.06,-96 1658.06,-103"/>
</g>
<!-- 1397203674832 -->
<g id="node15" class="node">
<title>1397203674832</title>
<polygon fill="none" stroke="black" points="325.5,-110.5 325.5,-146.5 538.5,-146.5 538.5,-110.5 325.5,-110.5"/>
<text text-anchor="middle" x="348.5" y="-123.2" font-family="Times New Roman,serif" font-size="14.00">x1w1</text>
<polyline fill="none" stroke="black" points="371.5,-110.75 371.5,-146.5"/>
<text text-anchor="middle" x="414" y="-123.2" font-family="Times New Roman,serif" font-size="14.00">data &#45;6.0000</text>
<polyline fill="none" stroke="black" points="456.5,-110.75 456.5,-146.5"/>
<text text-anchor="middle" x="497.5" y="-123.2" font-family="Times New Roman,serif" font-size="14.00">grad 0.5000</text>
</g>
<!-- 1397203674832&#45;&gt;1397203674768+ -->
<g id="edge13" class="edge">
<title>1397203674832&#45;&gt;1397203674768+</title>
<path fill="none" stroke="black" d="M538.61,-110.85C547.54,-109.35 556.12,-107.92 563.9,-106.62"/>
<polygon fill="black" stroke="black" points="564.24,-110.11 573.53,-105.01 563.09,-103.21 564.24,-110.11"/>
</g>
<!-- 1397203674832*&#45;&gt;1397203674832 -->
<g id="edge5" class="edge">
<title>1397203674832*&#45;&gt;1397203674832</title>
<path fill="none" stroke="black" d="M289.67,-128.5C296.79,-128.5 304.98,-128.5 313.76,-128.5"/>
<polygon fill="black" stroke="black" points="313.64,-132 323.64,-128.5 313.64,-125 313.64,-132"/>
</g>
<!-- 1397203675344 -->
<g id="node17" class="node">
<title>1397203675344</title>
<polygon fill="none" stroke="black" points="2422.5,-57.5 2422.5,-93.5 2604.75,-93.5 2604.75,-57.5 2422.5,-57.5"/>
<text text-anchor="middle" x="2432.38" y="-70.2" font-family="Times New Roman,serif" font-size="14.00"> </text>
<polyline fill="none" stroke="black" points="2442.25,-57.75 2442.25,-93.5"/>
<text text-anchor="middle" x="2482.5" y="-70.2" font-family="Times New Roman,serif" font-size="14.00">data 0.1464</text>
<polyline fill="none" stroke="black" points="2522.75,-57.75 2522.75,-93.5"/>
<text text-anchor="middle" x="2563.75" y="-70.2" font-family="Times New Roman,serif" font-size="14.00">grad 4.8284</text>
</g>
<!-- 1397203675472* -->
<g id="node23" class="node">
<title>1397203675472*</title>
<ellipse fill="none" stroke="black" cx="2667.75" cy="-98.5" rx="27" ry="18"/>
<text text-anchor="middle" x="2667.75" y="-93.08" font-family="Times New Roman,serif" font-size="14.00">*</text>
</g>
<!-- 1397203675344&#45;&gt;1397203675472* -->
<g id="edge18" class="edge">
<title>1397203675344&#45;&gt;1397203675472*</title>
<path fill="none" stroke="black" d="M2604.87,-89.15C2613.63,-90.47 2622.12,-91.75 2629.87,-92.92"/>
<polygon fill="black" stroke="black" points="2629.08,-96.34 2639.49,-94.38 2630.13,-89.42 2629.08,-96.34"/>
</g>
<!-- 1397203675344**&#45;1&#45;&gt;1397203675344 -->
<g id="edge6" class="edge">
<title>1397203675344**&#45;1&#45;&gt;1397203675344</title>
<path fill="none" stroke="black" d="M2322.89,-71.99C2345.09,-72.4 2378.25,-73.01 2410.67,-73.61"/>
<polygon fill="black" stroke="black" points="2410.51,-77.11 2420.58,-73.8 2410.64,-70.11 2410.51,-77.11"/>
</g>
<!-- 1397203674512 -->
<g id="node19" class="node">
<title>1397203674512</title>
<polygon fill="none" stroke="black" points="327.75,-55.5 327.75,-91.5 536.25,-91.5 536.25,-55.5 327.75,-55.5"/>
<text text-anchor="middle" x="350.75" y="-68.2" font-family="Times New Roman,serif" font-size="14.00">x2w2</text>
<polyline fill="none" stroke="black" points="373.75,-55.75 373.75,-91.5"/>
<text text-anchor="middle" x="414" y="-68.2" font-family="Times New Roman,serif" font-size="14.00">data 0.0000</text>
<polyline fill="none" stroke="black" points="454.25,-55.75 454.25,-91.5"/>
<text text-anchor="middle" x="495.25" y="-68.2" font-family="Times New Roman,serif" font-size="14.00">grad 0.5000</text>
</g>
<!-- 1397203674512&#45;&gt;1397203674768+ -->
<g id="edge28" class="edge">
<title>1397203674512&#45;&gt;1397203674768+</title>
<path fill="none" stroke="black" d="M536.7,-90.22C546.14,-91.74 555.22,-93.2 563.43,-94.52"/>
<polygon fill="black" stroke="black" points="562.84,-97.97 573.27,-96.11 563.95,-91.06 562.84,-97.97"/>
</g>
<!-- 1397203674512*&#45;&gt;1397203674512 -->
<g id="edge7" class="edge">
<title>1397203674512*&#45;&gt;1397203674512</title>
<path fill="none" stroke="black" d="M289.67,-73.5C297.34,-73.5 306.26,-73.5 315.82,-73.5"/>
<polygon fill="black" stroke="black" points="315.79,-77 325.79,-73.5 315.79,-70 315.79,-77"/>
</g>
<!-- 1397203674384 -->
<g id="node21" class="node">
<title>1397203674384</title>
<polygon fill="none" stroke="black" points="2.25,-0.5 2.25,-36.5 197.25,-36.5 197.25,-0.5 2.25,-0.5"/>
<text text-anchor="middle" x="18.5" y="-13.2" font-family="Times New Roman,serif" font-size="14.00">w2</text>
<polyline fill="none" stroke="black" points="34.75,-0.75 34.75,-36.5"/>
<text text-anchor="middle" x="75" y="-13.2" font-family="Times New Roman,serif" font-size="14.00">data 1.0000</text>
<polyline fill="none" stroke="black" points="115.25,-0.75 115.25,-36.5"/>
<text text-anchor="middle" x="156.25" y="-13.2" font-family="Times New Roman,serif" font-size="14.00">grad 0.0000</text>
</g>
<!-- 1397203674384&#45;&gt;1397203674512* -->
<g id="edge12" class="edge">
<title>1397203674384&#45;&gt;1397203674512*</title>
<path fill="none" stroke="black" d="M173.43,-36.97C182.28,-39.63 191.14,-42.49 199.5,-45.5 209.59,-49.13 220.33,-53.71 229.98,-58.11"/>
<polygon fill="black" stroke="black" points="228.41,-61.24 238.95,-62.3 231.37,-54.9 228.41,-61.24"/>
</g>
<!-- 1397203675472 -->
<g id="node22" class="node">
<title>1397203675472</title>
<polygon fill="none" stroke="black" points="2730.75,-80.5 2730.75,-116.5 2916.75,-116.5 2916.75,-80.5 2730.75,-80.5"/>
<text text-anchor="middle" x="2742.5" y="-93.2" font-family="Times New Roman,serif" font-size="14.00">o</text>
<polyline fill="none" stroke="black" points="2754.25,-80.75 2754.25,-116.5"/>
<text text-anchor="middle" x="2794.5" y="-93.2" font-family="Times New Roman,serif" font-size="14.00">data 0.7071</text>
<polyline fill="none" stroke="black" points="2834.75,-80.75 2834.75,-116.5"/>
<text text-anchor="middle" x="2875.75" y="-93.2" font-family="Times New Roman,serif" font-size="14.00">grad 1.0000</text>
</g>
<!-- 1397203675472*&#45;&gt;1397203675472 -->
<g id="edge8" class="edge">
<title>1397203675472*&#45;&gt;1397203675472</title>
<path fill="none" stroke="black" d="M2695.22,-98.5C2702.36,-98.5 2710.53,-98.5 2719.21,-98.5"/>
<polygon fill="black" stroke="black" points="2718.94,-102 2728.94,-98.5 2718.94,-95 2718.94,-102"/>
</g>
<!-- 1397203466576 -->
<g id="node24" class="node">
<title>1397203466576</title>
<polygon fill="none" stroke="black" points="2204.25,-108.5 2204.25,-144.5 2386.5,-144.5 2386.5,-108.5 2204.25,-108.5"/>
<text text-anchor="middle" x="2214.12" y="-121.2" font-family="Times New Roman,serif" font-size="14.00"> </text>
<polyline fill="none" stroke="black" points="2224,-108.75 2224,-144.5"/>
<text text-anchor="middle" x="2264.25" y="-121.2" font-family="Times New Roman,serif" font-size="14.00">data 4.8284</text>
<polyline fill="none" stroke="black" points="2304.5,-108.75 2304.5,-144.5"/>
<text text-anchor="middle" x="2345.5" y="-121.2" font-family="Times New Roman,serif" font-size="14.00">grad 0.1464</text>
</g>
<!-- 1397203466576&#45;&gt;1397203675472* -->
<g id="edge17" class="edge">
<title>1397203466576&#45;&gt;1397203675472*</title>
<path fill="none" stroke="black" d="M2386.98,-119.65C2464.75,-113.77 2572.96,-105.59 2629.29,-101.33"/>
<polygon fill="black" stroke="black" points="2629.28,-104.84 2638.98,-100.6 2628.75,-97.86 2629.28,-104.84"/>
</g>
<!-- 1397203466576+&#45;&gt;1397203466576 -->
<g id="edge9" class="edge">
<title>1397203466576+&#45;&gt;1397203466576</title>
<path fill="none" stroke="black" d="M1945.86,-126.5C1996.29,-126.5 2108.84,-126.5 2192.47,-126.5"/>
<polygon fill="black" stroke="black" points="2192.3,-130 2202.3,-126.5 2192.3,-123 2192.3,-130"/>
</g>
<!-- 1397203674960 -->
<g id="node26" class="node">
<title>1397203674960</title>
<polygon fill="none" stroke="black" points="1049.25,-109.5 1049.25,-145.5 1234.5,-145.5 1234.5,-109.5 1049.25,-109.5"/>
<text text-anchor="middle" x="1060.62" y="-122.2" font-family="Times New Roman,serif" font-size="14.00">n</text>
<polyline fill="none" stroke="black" points="1072,-109.75 1072,-145.5"/>
<text text-anchor="middle" x="1112.25" y="-122.2" font-family="Times New Roman,serif" font-size="14.00">data 0.8814</text>
<polyline fill="none" stroke="black" points="1152.5,-109.75 1152.5,-145.5"/>
<text text-anchor="middle" x="1193.5" y="-122.2" font-family="Times New Roman,serif" font-size="14.00">grad 0.5000</text>
</g>
<!-- 1397203674960&#45;&gt;1397203674128* -->
<g id="edge19" class="edge">
<title>1397203674960&#45;&gt;1397203674128*</title>
<path fill="none" stroke="black" d="M1234.9,-110.73C1243.64,-109.13 1252.11,-107.59 1259.83,-106.18"/>
<polygon fill="black" stroke="black" points="1260.2,-109.67 1269.41,-104.44 1258.94,-102.79 1260.2,-109.67"/>
</g>
<!-- 1397203674960+&#45;&gt;1397203674960 -->
<g id="edge10" class="edge">
<title>1397203674960+&#45;&gt;1397203674960</title>
<path fill="none" stroke="black" d="M1013.66,-127.5C1020.7,-127.5 1028.75,-127.5 1037.3,-127.5"/>
<polygon fill="black" stroke="black" points="1037.29,-131 1047.29,-127.5 1037.29,-124 1037.29,-131"/>
</g>
<!-- 1397203675024 -->
<g id="node28" class="node">
<title>1397203675024</title>
<polygon fill="none" stroke="black" points="1050.75,-54.5 1050.75,-90.5 1233,-90.5 1233,-54.5 1050.75,-54.5"/>
<text text-anchor="middle" x="1060.62" y="-67.2" font-family="Times New Roman,serif" font-size="14.00"> </text>
<polyline fill="none" stroke="black" points="1070.5,-54.75 1070.5,-90.5"/>
<text text-anchor="middle" x="1110.75" y="-67.2" font-family="Times New Roman,serif" font-size="14.00">data 2.0000</text>
<polyline fill="none" stroke="black" points="1151,-54.75 1151,-90.5"/>
<text text-anchor="middle" x="1192" y="-67.2" font-family="Times New Roman,serif" font-size="14.00">grad 0.2203</text>
</g>
<!-- 1397203675024&#45;&gt;1397203674128* -->
<g id="edge25" class="edge">
<title>1397203675024&#45;&gt;1397203674128*</title>
<path fill="none" stroke="black" d="M1233.13,-88.36C1242.43,-90 1251.46,-91.58 1259.65,-93.02"/>
<polygon fill="black" stroke="black" points="1259.04,-96.47 1269.5,-94.75 1260.25,-89.58 1259.04,-96.47"/>
</g>
</g>
</svg>
