<?xml version="1.0" encoding="UTF-8" standalone="no"?>
<!DOCTYPE svg PUBLIC "-//W3C//DTD SVG 1.1//EN"
 "http://www.w3.org/Graphics/SVG/1.1/DTD/svg11.dtd">
<!-- Generated by graphviz version 11.0.0 (20240428.1522)
 -->
<!-- Pages: 1 -->
<svg width="829pt" height="127pt"
 viewBox="0.00 0.00 828.50 127.00" xmlns="http://www.w3.org/2000/svg" xmlns:xlink="http://www.w3.org/1999/xlink">
<g id="graph0" class="graph" transform="scale(1 1) rotate(0) translate(4 123)">
<polygon fill="white" stroke="none" points="-4,4 -4,-123 824.5,-123 824.5,4 -4,4"/>
<!-- 1743400849936 -->
<g id="node1" class="node">
<title>1743400849936</title>
<polygon fill="none" stroke="black" points="318,-27.5 318,-63.5 507,-63.5 507,-27.5 318,-27.5"/>
<text text-anchor="middle" x="329" y="-40.2" font-family="Times New Roman,serif" font-size="14.00">e</text>
<polyline fill="none" stroke="black" points="340,-27.75 340,-63.5"/>
<text text-anchor="middle" x="382.5" y="-40.2" font-family="Times New Roman,serif" font-size="14.00">data &#45;6.0000</text>
<polyline fill="none" stroke="black" points="425,-27.75 425,-63.5"/>
<text text-anchor="middle" x="466" y="-40.2" font-family="Times New Roman,serif" font-size="14.00">grad 0.0000</text>
</g>
<!-- 1743655591184+ -->
<g id="node6" class="node">
<title>1743655591184+</title>
<ellipse fill="none" stroke="black" cx="571.5" cy="-72.5" rx="27" ry="18"/>
<text text-anchor="middle" x="571.5" y="-67.08" font-family="Times New Roman,serif" font-size="14.00">+</text>
</g>
<!-- 1743400849936&#45;&gt;1743655591184+ -->
<g id="edge3" class="edge">
<title>1743400849936&#45;&gt;1743655591184+</title>
<path fill="none" stroke="black" d="M507.09,-61.6C516.45,-63.2 525.5,-64.76 533.71,-66.17"/>
<polygon fill="black" stroke="black" points="533.1,-69.62 543.55,-67.87 534.29,-62.72 533.1,-69.62"/>
</g>
<!-- 1743400849936* -->
<g id="node2" class="node">
<title>1743400849936*</title>
<ellipse fill="none" stroke="black" cx="253.5" cy="-45.5" rx="27" ry="18"/>
<text text-anchor="middle" x="253.5" y="-40.08" font-family="Times New Roman,serif" font-size="14.00">*</text>
</g>
<!-- 1743400849936*&#45;&gt;1743400849936 -->
<g id="edge1" class="edge">
<title>1743400849936*&#45;&gt;1743400849936</title>
<path fill="none" stroke="black" d="M280.78,-45.5C288.29,-45.5 296.96,-45.5 306.2,-45.5"/>
<polygon fill="black" stroke="black" points="306.2,-49 316.2,-45.5 306.2,-42 306.2,-49"/>
</g>
<!-- 1743401029712 -->
<g id="node3" class="node">
<title>1743401029712</title>
<polygon fill="none" stroke="black" points="0,-55.5 0,-91.5 190.5,-91.5 190.5,-55.5 0,-55.5"/>
<text text-anchor="middle" x="11.75" y="-68.2" font-family="Times New Roman,serif" font-size="14.00">b</text>
<polyline fill="none" stroke="black" points="23.5,-55.75 23.5,-91.5"/>
<text text-anchor="middle" x="66" y="-68.2" font-family="Times New Roman,serif" font-size="14.00">data &#45;3.0000</text>
<polyline fill="none" stroke="black" points="108.5,-55.75 108.5,-91.5"/>
<text text-anchor="middle" x="149.5" y="-68.2" font-family="Times New Roman,serif" font-size="14.00">grad 0.0000</text>
</g>
<!-- 1743401029712&#45;&gt;1743400849936* -->
<g id="edge6" class="edge">
<title>1743401029712&#45;&gt;1743400849936*</title>
<path fill="none" stroke="black" d="M190.75,-56.57C199.54,-54.99 208.04,-53.47 215.78,-52.08"/>
<polygon fill="black" stroke="black" points="216.16,-55.57 225.39,-50.36 214.93,-48.68 216.16,-55.57"/>
</g>
<!-- 1743688475792 -->
<g id="node4" class="node">
<title>1743688475792</title>
<polygon fill="none" stroke="black" points="316.5,-82.5 316.5,-118.5 508.5,-118.5 508.5,-82.5 316.5,-82.5"/>
<text text-anchor="middle" x="327.88" y="-95.2" font-family="Times New Roman,serif" font-size="14.00">c</text>
<polyline fill="none" stroke="black" points="339.25,-82.75 339.25,-118.5"/>
<text text-anchor="middle" x="382.88" y="-95.2" font-family="Times New Roman,serif" font-size="14.00">data 10.0000</text>
<polyline fill="none" stroke="black" points="426.5,-82.75 426.5,-118.5"/>
<text text-anchor="middle" x="467.5" y="-95.2" font-family="Times New Roman,serif" font-size="14.00">grad 0.0000</text>
</g>
<!-- 1743688475792&#45;&gt;1743655591184+ -->
<g id="edge4" class="edge">
<title>1743688475792&#45;&gt;1743655591184+</title>
<path fill="none" stroke="black" d="M508.9,-83.49C517.68,-81.92 526.17,-80.41 533.89,-79.03"/>
<polygon fill="black" stroke="black" points="534.25,-82.52 543.48,-77.32 533.02,-75.63 534.25,-82.52"/>
</g>
<!-- 1743655591184 -->
<g id="node5" class="node">
<title>1743655591184</title>
<polygon fill="none" stroke="black" points="634.5,-54.5 634.5,-90.5 820.5,-90.5 820.5,-54.5 634.5,-54.5"/>
<text text-anchor="middle" x="646.25" y="-67.2" font-family="Times New Roman,serif" font-size="14.00">d</text>
<polyline fill="none" stroke="black" points="658,-54.75 658,-90.5"/>
<text text-anchor="middle" x="698.25" y="-67.2" font-family="Times New Roman,serif" font-size="14.00">data 4.0000</text>
<polyline fill="none" stroke="black" points="738.5,-54.75 738.5,-90.5"/>
<text text-anchor="middle" x="779.5" y="-67.2" font-family="Times New Roman,serif" font-size="14.00">grad 0.0000</text>
</g>
<!-- 1743655591184+&#45;&gt;1743655591184 -->
<g id="edge2" class="edge">
<title>1743655591184+&#45;&gt;1743655591184</title>
<path fill="none" stroke="black" d="M598.97,-72.5C606.11,-72.5 614.28,-72.5 622.96,-72.5"/>
<polygon fill="black" stroke="black" points="622.69,-76 632.69,-72.5 622.69,-69 622.69,-76"/>
</g>
<!-- 1743400792016 -->
<g id="node7" class="node">
<title>1743400792016</title>
<polygon fill="none" stroke="black" points="3,-0.5 3,-36.5 187.5,-36.5 187.5,-0.5 3,-0.5"/>
<text text-anchor="middle" x="14" y="-13.2" font-family="Times New Roman,serif" font-size="14.00">a</text>
<polyline fill="none" stroke="black" points="25,-0.75 25,-36.5"/>
<text text-anchor="middle" x="65.25" y="-13.2" font-family="Times New Roman,serif" font-size="14.00">data 2.0000</text>
<polyline fill="none" stroke="black" points="105.5,-0.75 105.5,-36.5"/>
<text text-anchor="middle" x="146.5" y="-13.2" font-family="Times New Roman,serif" font-size="14.00">grad 0.0000</text>
</g>
<!-- 1743400792016&#45;&gt;1743400849936* -->
<g id="edge5" class="edge">
<title>1743400792016&#45;&gt;1743400849936*</title>
<path fill="none" stroke="black" d="M187.59,-34.28C197.51,-36 207.14,-37.66 215.8,-39.16"/>
<polygon fill="black" stroke="black" points="215.02,-42.58 225.47,-40.83 216.22,-35.68 215.02,-42.58"/>
</g>
</g>
</svg>
