<?xml version="1.0" encoding="UTF-8" standalone="no"?>
<!DOCTYPE svg PUBLIC "-//W3C//DTD SVG 1.1//EN"
 "http://www.w3.org/Graphics/SVG/1.1/DTD/svg11.dtd">
<!-- Generated by graphviz version 11.0.0 (20240428.1522)
 -->
<!-- Pages: 1 -->
<svg width="1147pt" height="128pt"
 viewBox="0.00 0.00 1147.25 128.00" xmlns="http://www.w3.org/2000/svg" xmlns:xlink="http://www.w3.org/1999/xlink">
<g id="graph0" class="graph" transform="scale(1 1) rotate(0) translate(4 124)">
<polygon fill="white" stroke="none" points="-4,4 -4,-124 1143.25,-124 1143.25,4 -4,4"/>
<!-- 1397200112656 -->
<g id="node1" class="node">
<title>1397200112656</title>
<polygon fill="none" stroke="black" points="634.5,-82.5 634.5,-118.5 822,-118.5 822,-82.5 634.5,-82.5"/>
<text text-anchor="middle" x="644.75" y="-95.2" font-family="Times New Roman,serif" font-size="14.00">f</text>
<polyline fill="none" stroke="black" points="655,-82.75 655,-118.5"/>
<text text-anchor="middle" x="697.5" y="-95.2" font-family="Times New Roman,serif" font-size="14.00">data &#45;2.0000</text>
<polyline fill="none" stroke="black" points="740,-82.75 740,-118.5"/>
<text text-anchor="middle" x="781" y="-95.2" font-family="Times New Roman,serif" font-size="14.00">grad 0.0000</text>
</g>
<!-- 1396914945872* -->
<g id="node8" class="node">
<title>1396914945872*</title>
<ellipse fill="none" stroke="black" cx="885" cy="-72.5" rx="27" ry="18"/>
<text text-anchor="middle" x="885" y="-67.08" font-family="Times New Roman,serif" font-size="14.00">*</text>
</g>
<!-- 1397200112656&#45;&gt;1396914945872* -->
<g id="edge5" class="edge">
<title>1397200112656&#45;&gt;1396914945872*</title>
<path fill="none" stroke="black" d="M822.39,-83.65C831.15,-82.06 839.63,-80.53 847.34,-79.13"/>
<polygon fill="black" stroke="black" points="847.71,-82.62 856.93,-77.4 846.46,-75.73 847.71,-82.62"/>
</g>
<!-- 1397170087440 -->
<g id="node2" class="node">
<title>1397170087440</title>
<polygon fill="none" stroke="black" points="318,-55.5 318,-91.5 507,-91.5 507,-55.5 318,-55.5"/>
<text text-anchor="middle" x="329" y="-68.2" font-family="Times New Roman,serif" font-size="14.00">e</text>
<polyline fill="none" stroke="black" points="340,-55.75 340,-91.5"/>
<text text-anchor="middle" x="382.5" y="-68.2" font-family="Times New Roman,serif" font-size="14.00">data &#45;6.0000</text>
<polyline fill="none" stroke="black" points="425,-55.75 425,-91.5"/>
<text text-anchor="middle" x="466" y="-68.2" font-family="Times New Roman,serif" font-size="14.00">grad 0.0000</text>
</g>
<!-- 1396868518864+ -->
<g id="node10" class="node">
<title>1396868518864+</title>
<ellipse fill="none" stroke="black" cx="571.5" cy="-45.5" rx="27" ry="18"/>
<text text-anchor="middle" x="571.5" y="-40.08" font-family="Times New Roman,serif" font-size="14.00">+</text>
</g>
<!-- 1397170087440&#45;&gt;1396868518864+ -->
<g id="edge6" class="edge">
<title>1397170087440&#45;&gt;1396868518864+</title>
<path fill="none" stroke="black" d="M507.09,-56.81C516.56,-55.12 525.72,-53.49 533.99,-52.01"/>
<polygon fill="black" stroke="black" points="534.32,-55.51 543.55,-50.31 533.09,-48.62 534.32,-55.51"/>
</g>
<!-- 1397170087440* -->
<g id="node3" class="node">
<title>1397170087440*</title>
<ellipse fill="none" stroke="black" cx="253.5" cy="-73.5" rx="27" ry="18"/>
<text text-anchor="middle" x="253.5" y="-68.08" font-family="Times New Roman,serif" font-size="14.00">*</text>
</g>
<!-- 1397170087440*&#45;&gt;1397170087440 -->
<g id="edge1" class="edge">
<title>1397170087440*&#45;&gt;1397170087440</title>
<path fill="none" stroke="black" d="M280.78,-73.5C288.29,-73.5 296.96,-73.5 306.2,-73.5"/>
<polygon fill="black" stroke="black" points="306.2,-77 316.2,-73.5 306.2,-70 306.2,-77"/>
</g>
<!-- 1396914776592 -->
<g id="node4" class="node">
<title>1396914776592</title>
<polygon fill="none" stroke="black" points="3,-83.5 3,-119.5 187.5,-119.5 187.5,-83.5 3,-83.5"/>
<text text-anchor="middle" x="14" y="-96.2" font-family="Times New Roman,serif" font-size="14.00">a</text>
<polyline fill="none" stroke="black" points="25,-83.75 25,-119.5"/>
<text text-anchor="middle" x="65.25" y="-96.2" font-family="Times New Roman,serif" font-size="14.00">data 2.0000</text>
<polyline fill="none" stroke="black" points="105.5,-83.75 105.5,-119.5"/>
<text text-anchor="middle" x="146.5" y="-96.2" font-family="Times New Roman,serif" font-size="14.00">grad 0.0000</text>
</g>
<!-- 1396914776592&#45;&gt;1397170087440* -->
<g id="edge7" class="edge">
<title>1396914776592&#45;&gt;1397170087440*</title>
<path fill="none" stroke="black" d="M187.59,-85.13C197.51,-83.35 207.14,-81.63 215.8,-80.08"/>
<polygon fill="black" stroke="black" points="216.25,-83.55 225.48,-78.34 215.02,-76.66 216.25,-83.55"/>
</g>
<!-- 1396914777232 -->
<g id="node5" class="node">
<title>1396914777232</title>
<polygon fill="none" stroke="black" points="316.5,-0.5 316.5,-36.5 508.5,-36.5 508.5,-0.5 316.5,-0.5"/>
<text text-anchor="middle" x="327.88" y="-13.2" font-family="Times New Roman,serif" font-size="14.00">c</text>
<polyline fill="none" stroke="black" points="339.25,-0.75 339.25,-36.5"/>
<text text-anchor="middle" x="382.88" y="-13.2" font-family="Times New Roman,serif" font-size="14.00">data 10.0000</text>
<polyline fill="none" stroke="black" points="426.5,-0.75 426.5,-36.5"/>
<text text-anchor="middle" x="467.5" y="-13.2" font-family="Times New Roman,serif" font-size="14.00">grad 0.0000</text>
</g>
<!-- 1396914777232&#45;&gt;1396868518864+ -->
<g id="edge8" class="edge">
<title>1396914777232&#45;&gt;1396868518864+</title>
<path fill="none" stroke="black" d="M508.9,-34.91C517.58,-36.4 525.97,-37.84 533.62,-39.16"/>
<polygon fill="black" stroke="black" points="533.03,-42.61 543.47,-40.85 534.21,-35.71 533.03,-42.61"/>
</g>
<!-- 1396914770192 -->
<g id="node6" class="node">
<title>1396914770192</title>
<polygon fill="none" stroke="black" points="0,-28.5 0,-64.5 190.5,-64.5 190.5,-28.5 0,-28.5"/>
<text text-anchor="middle" x="11.75" y="-41.2" font-family="Times New Roman,serif" font-size="14.00">b</text>
<polyline fill="none" stroke="black" points="23.5,-28.75 23.5,-64.5"/>
<text text-anchor="middle" x="66" y="-41.2" font-family="Times New Roman,serif" font-size="14.00">data &#45;3.0000</text>
<polyline fill="none" stroke="black" points="108.5,-28.75 108.5,-64.5"/>
<text text-anchor="middle" x="149.5" y="-41.2" font-family="Times New Roman,serif" font-size="14.00">grad 0.0000</text>
</g>
<!-- 1396914770192&#45;&gt;1397170087440* -->
<g id="edge9" class="edge">
<title>1396914770192&#45;&gt;1397170087440*</title>
<path fill="none" stroke="black" d="M190.75,-62.83C199.54,-64.35 208.04,-65.82 215.78,-67.15"/>
<polygon fill="black" stroke="black" points="214.94,-70.56 225.39,-68.81 216.13,-63.66 214.94,-70.56"/>
</g>
<!-- 1396914945872 -->
<g id="node7" class="node">
<title>1396914945872</title>
<polygon fill="none" stroke="black" points="948,-54.5 948,-90.5 1139.25,-90.5 1139.25,-54.5 948,-54.5"/>
<text text-anchor="middle" x="960.12" y="-67.2" font-family="Times New Roman,serif" font-size="14.00">L</text>
<polyline fill="none" stroke="black" points="972.25,-54.75 972.25,-90.5"/>
<text text-anchor="middle" x="1014.75" y="-67.2" font-family="Times New Roman,serif" font-size="14.00">data &#45;8.0000</text>
<polyline fill="none" stroke="black" points="1057.25,-54.75 1057.25,-90.5"/>
<text text-anchor="middle" x="1098.25" y="-67.2" font-family="Times New Roman,serif" font-size="14.00">grad 0.0000</text>
</g>
<!-- 1396914945872*&#45;&gt;1396914945872 -->
<g id="edge2" class="edge">
<title>1396914945872*&#45;&gt;1396914945872</title>
<path fill="none" stroke="black" d="M912.22,-72.5C919.38,-72.5 927.61,-72.5 936.37,-72.5"/>
<polygon fill="black" stroke="black" points="936.21,-76 946.21,-72.5 936.21,-69 936.21,-76"/>
</g>
<!-- 1396868518864 -->
<g id="node9" class="node">
<title>1396868518864</title>
<polygon fill="none" stroke="black" points="635.25,-27.5 635.25,-63.5 821.25,-63.5 821.25,-27.5 635.25,-27.5"/>
<text text-anchor="middle" x="647" y="-40.2" font-family="Times New Roman,serif" font-size="14.00">d</text>
<polyline fill="none" stroke="black" points="658.75,-27.75 658.75,-63.5"/>
<text text-anchor="middle" x="699" y="-40.2" font-family="Times New Roman,serif" font-size="14.00">data 4.0000</text>
<polyline fill="none" stroke="black" points="739.25,-27.75 739.25,-63.5"/>
<text text-anchor="middle" x="780.25" y="-40.2" font-family="Times New Roman,serif" font-size="14.00">grad 0.0000</text>
</g>
<!-- 1396868518864&#45;&gt;1396914945872* -->
<g id="edge4" class="edge">
<title>1396868518864&#45;&gt;1396914945872*</title>
<path fill="none" stroke="black" d="M821.5,-61.6C830.64,-63.19 839.48,-64.73 847.5,-66.13"/>
<polygon fill="black" stroke="black" points="846.66,-69.54 857.12,-67.81 847.87,-62.64 846.66,-69.54"/>
</g>
<!-- 1396868518864+&#45;&gt;1396868518864 -->
<g id="edge3" class="edge">
<title>1396868518864+&#45;&gt;1396868518864</title>
<path fill="none" stroke="black" d="M598.75,-45.5C606.11,-45.5 614.58,-45.5 623.59,-45.5"/>
<polygon fill="black" stroke="black" points="623.3,-49 633.3,-45.5 623.3,-42 623.3,-49"/>
</g>
</g>
</svg>
