<?xml version="1.0" encoding="UTF-8" standalone="no"?>
<!DOCTYPE svg PUBLIC "-//W3C//DTD SVG 1.1//EN"
 "http://www.w3.org/Graphics/SVG/1.1/DTD/svg11.dtd">
<!-- Generated by graphviz version 11.0.0 (20240428.1522)
 -->
<!-- Pages: 1 -->
<svg width="2925pt" height="239pt"
 viewBox="0.00 0.00 2924.75 239.00" xmlns="http://www.w3.org/2000/svg" xmlns:xlink="http://www.w3.org/1999/xlink">
<g id="graph0" class="graph" transform="scale(1 1) rotate(0) translate(4 235)">
<polygon fill="white" stroke="none" points="-4,4 -4,-235 2920.75,-235 2920.75,4 -4,4"/>
<!-- 2222600952848 -->
<g id="node1" class="node">
<title>2222600952848</title>
<polygon fill="none" stroke="black" points="1668.75,-110.5 1668.75,-146.5 1855.5,-146.5 1855.5,-110.5 1668.75,-110.5"/>
<text text-anchor="middle" x="1678.62" y="-123.2" font-family="Times New Roman,serif" font-size="14.00"> </text>
<polyline fill="none" stroke="black" points="1688.5,-110.75 1688.5,-146.5"/>
<text text-anchor="middle" x="1728.75" y="-123.2" font-family="Times New Roman,serif" font-size="14.00">data 1.0000</text>
<polyline fill="none" stroke="black" points="1769,-110.75 1769,-146.5"/>
<text text-anchor="middle" x="1812.25" y="-123.2" font-family="Times New Roman,serif" font-size="14.00">grad &#45;0.1036</text>
</g>
<!-- 2222600952272+ -->
<g id="node27" class="node">
<title>2222600952272+</title>
<ellipse fill="none" stroke="black" cx="1918.5" cy="-100.5" rx="27" ry="18"/>
<text text-anchor="middle" x="1918.5" y="-95.08" font-family="Times New Roman,serif" font-size="14.00">+</text>
</g>
<!-- 2222600952848&#45;&gt;2222600952272+ -->
<g id="edge12" class="edge">
<title>2222600952848&#45;&gt;2222600952272+</title>
<path fill="none" stroke="black" d="M1855.6,-111.73C1864.47,-110.12 1873.06,-108.56 1880.87,-107.14"/>
<polygon fill="black" stroke="black" points="1881.37,-110.61 1890.58,-105.38 1880.12,-103.72 1881.37,-110.61"/>
</g>
<!-- 2222564795920 -->
<g id="node2" class="node">
<title>2222564795920</title>
<polygon fill="none" stroke="black" points="664.5,-111.5 664.5,-147.5 923.25,-147.5 923.25,-111.5 664.5,-111.5"/>
<text text-anchor="middle" x="710.38" y="-124.2" font-family="Times New Roman,serif" font-size="14.00">x1w1 + x2w2</text>
<polyline fill="none" stroke="black" points="756.25,-111.75 756.25,-147.5"/>
<text text-anchor="middle" x="798.75" y="-124.2" font-family="Times New Roman,serif" font-size="14.00">data &#45;6.0000</text>
<polyline fill="none" stroke="black" points="841.25,-111.75 841.25,-147.5"/>
<text text-anchor="middle" x="882.25" y="-124.2" font-family="Times New Roman,serif" font-size="14.00">grad 0.5000</text>
</g>
<!-- 2222600952400+ -->
<g id="node12" class="node">
<title>2222600952400+</title>
<ellipse fill="none" stroke="black" cx="986.25" cy="-101.5" rx="27" ry="18"/>
<text text-anchor="middle" x="986.25" y="-96.08" font-family="Times New Roman,serif" font-size="14.00">+</text>
</g>
<!-- 2222564795920&#45;&gt;2222600952400+ -->
<g id="edge20" class="edge">
<title>2222564795920&#45;&gt;2222600952400+</title>
<path fill="none" stroke="black" d="M920.53,-111.02C930.44,-109.56 939.85,-108.18 948.27,-106.94"/>
<polygon fill="black" stroke="black" points="948.59,-110.43 957.97,-105.51 947.57,-103.5 948.59,-110.43"/>
</g>
<!-- 2222564795920+ -->
<g id="node3" class="node">
<title>2222564795920+</title>
<ellipse fill="none" stroke="black" cx="601.5" cy="-129.5" rx="27" ry="18"/>
<text text-anchor="middle" x="601.5" y="-124.08" font-family="Times New Roman,serif" font-size="14.00">+</text>
</g>
<!-- 2222564795920+&#45;&gt;2222564795920 -->
<g id="edge1" class="edge">
<title>2222564795920+&#45;&gt;2222564795920</title>
<path fill="none" stroke="black" d="M628.97,-129.5C636.01,-129.5 644.12,-129.5 652.9,-129.5"/>
<polygon fill="black" stroke="black" points="652.81,-133 662.81,-129.5 652.81,-126 652.81,-133"/>
</g>
<!-- 2222564691472 -->
<g id="node4" class="node">
<title>2222564691472</title>
<polygon fill="none" stroke="black" points="325.5,-139.5 325.5,-175.5 538.5,-175.5 538.5,-139.5 325.5,-139.5"/>
<text text-anchor="middle" x="348.5" y="-152.2" font-family="Times New Roman,serif" font-size="14.00">x1w1</text>
<polyline fill="none" stroke="black" points="371.5,-139.75 371.5,-175.5"/>
<text text-anchor="middle" x="414" y="-152.2" font-family="Times New Roman,serif" font-size="14.00">data &#45;6.0000</text>
<polyline fill="none" stroke="black" points="456.5,-139.75 456.5,-175.5"/>
<text text-anchor="middle" x="497.5" y="-152.2" font-family="Times New Roman,serif" font-size="14.00">grad 0.5000</text>
</g>
<!-- 2222564691472&#45;&gt;2222564795920+ -->
<g id="edge26" class="edge">
<title>2222564691472&#45;&gt;2222564795920+</title>
<path fill="none" stroke="black" d="M538.61,-139.85C547.54,-138.35 556.12,-136.92 563.9,-135.62"/>
<polygon fill="black" stroke="black" points="564.24,-139.11 573.53,-134.01 563.09,-132.21 564.24,-139.11"/>
</g>
<!-- 2222564691472* -->
<g id="node5" class="node">
<title>2222564691472*</title>
<ellipse fill="none" stroke="black" cx="262.5" cy="-157.5" rx="27" ry="18"/>
<text text-anchor="middle" x="262.5" y="-152.07" font-family="Times New Roman,serif" font-size="14.00">*</text>
</g>
<!-- 2222564691472*&#45;&gt;2222564691472 -->
<g id="edge2" class="edge">
<title>2222564691472*&#45;&gt;2222564691472</title>
<path fill="none" stroke="black" d="M289.67,-157.5C296.79,-157.5 304.98,-157.5 313.76,-157.5"/>
<polygon fill="black" stroke="black" points="313.64,-161 323.64,-157.5 313.64,-154 313.64,-161"/>
</g>
<!-- 2222600951824 -->
<g id="node6" class="node">
<title>2222600951824</title>
<polygon fill="none" stroke="black" points="0,-194.5 0,-230.5 199.5,-230.5 199.5,-194.5 0,-194.5"/>
<text text-anchor="middle" x="16.25" y="-207.2" font-family="Times New Roman,serif" font-size="14.00">w1</text>
<polyline fill="none" stroke="black" points="32.5,-194.75 32.5,-230.5"/>
<text text-anchor="middle" x="75" y="-207.2" font-family="Times New Roman,serif" font-size="14.00">data &#45;3.0000</text>
<polyline fill="none" stroke="black" points="117.5,-194.75 117.5,-230.5"/>
<text text-anchor="middle" x="158.5" y="-207.2" font-family="Times New Roman,serif" font-size="14.00">grad 1.0000</text>
</g>
<!-- 2222600951824&#45;&gt;2222564691472* -->
<g id="edge11" class="edge">
<title>2222600951824&#45;&gt;2222564691472*</title>
<path fill="none" stroke="black" d="M173.43,-194.03C182.28,-191.37 191.14,-188.51 199.5,-185.5 209.59,-181.87 220.33,-177.29 229.98,-172.89"/>
<polygon fill="black" stroke="black" points="231.37,-176.1 238.95,-168.7 228.41,-169.76 231.37,-176.1"/>
</g>
<!-- 2222600952912 -->
<g id="node7" class="node">
<title>2222600952912</title>
<polygon fill="none" stroke="black" points="2422.5,-80.5 2422.5,-116.5 2604.75,-116.5 2604.75,-80.5 2422.5,-80.5"/>
<text text-anchor="middle" x="2432.38" y="-93.2" font-family="Times New Roman,serif" font-size="14.00"> </text>
<polyline fill="none" stroke="black" points="2442.25,-80.75 2442.25,-116.5"/>
<text text-anchor="middle" x="2482.5" y="-93.2" font-family="Times New Roman,serif" font-size="14.00">data 0.1464</text>
<polyline fill="none" stroke="black" points="2522.75,-80.75 2522.75,-116.5"/>
<text text-anchor="middle" x="2563.75" y="-93.2" font-family="Times New Roman,serif" font-size="14.00">grad 4.8284</text>
</g>
<!-- 2222600953104* -->
<g id="node22" class="node">
<title>2222600953104*</title>
<ellipse fill="none" stroke="black" cx="2667.75" cy="-72.5" rx="27" ry="18"/>
<text text-anchor="middle" x="2667.75" y="-67.08" font-family="Times New Roman,serif" font-size="14.00">*</text>
</g>
<!-- 2222600952912&#45;&gt;2222600953104* -->
<g id="edge25" class="edge">
<title>2222600952912&#45;&gt;2222600953104*</title>
<path fill="none" stroke="black" d="M2604.87,-83.08C2613.71,-81.56 2622.28,-80.1 2630.09,-78.77"/>
<polygon fill="black" stroke="black" points="2630.53,-82.24 2639.8,-77.11 2629.35,-75.34 2630.53,-82.24"/>
</g>
<!-- 2222600952912**&#45;1 -->
<g id="node8" class="node">
<title>2222600952912**&#45;1</title>
<ellipse fill="none" stroke="black" cx="2295.38" cy="-100.5" rx="27.11" ry="18"/>
<text text-anchor="middle" x="2295.38" y="-95.08" font-family="Times New Roman,serif" font-size="14.00">**&#45;1</text>
</g>
<!-- 2222600952912**&#45;1&#45;&gt;2222600952912 -->
<g id="edge3" class="edge">
<title>2222600952912**&#45;1&#45;&gt;2222600952912</title>
<path fill="none" stroke="black" d="M2322.89,-100.25C2345.09,-100.05 2378.25,-99.74 2410.67,-99.44"/>
<polygon fill="black" stroke="black" points="2410.61,-102.94 2420.58,-99.35 2410.54,-95.94 2410.61,-102.94"/>
</g>
<!-- 2222600948304 -->
<g id="node9" class="node">
<title>2222600948304</title>
<polygon fill="none" stroke="black" points="1669.88,-55.5 1669.88,-91.5 1854.38,-91.5 1854.38,-55.5 1669.88,-55.5"/>
<text text-anchor="middle" x="1680.88" y="-68.2" font-family="Times New Roman,serif" font-size="14.00">e</text>
<polyline fill="none" stroke="black" points="1691.88,-55.75 1691.88,-91.5"/>
<text text-anchor="middle" x="1732.12" y="-68.2" font-family="Times New Roman,serif" font-size="14.00">data 5.8284</text>
<polyline fill="none" stroke="black" points="1772.38,-55.75 1772.38,-91.5"/>
<text text-anchor="middle" x="1813.38" y="-68.2" font-family="Times New Roman,serif" font-size="14.00">grad 0.0429</text>
</g>
<!-- 2222600952528+ -->
<g id="node20" class="node">
<title>2222600952528+</title>
<ellipse fill="none" stroke="black" cx="1918.5" cy="-45.5" rx="27" ry="18"/>
<text text-anchor="middle" x="1918.5" y="-40.08" font-family="Times New Roman,serif" font-size="14.00">+</text>
</g>
<!-- 2222600948304&#45;&gt;2222600952528+ -->
<g id="edge14" class="edge">
<title>2222600948304&#45;&gt;2222600952528+</title>
<path fill="none" stroke="black" d="M1854.71,-56.89C1863.87,-55.23 1872.75,-53.62 1880.81,-52.15"/>
<polygon fill="black" stroke="black" points="1881.26,-55.63 1890.48,-50.4 1880.01,-48.74 1881.26,-55.63"/>
</g>
<!-- 2222600948304&#45;&gt;2222600952272+ -->
<g id="edge15" class="edge">
<title>2222600948304&#45;&gt;2222600952272+</title>
<path fill="none" stroke="black" d="M1854.71,-89.52C1863.87,-91.12 1872.75,-92.67 1880.81,-94.08"/>
<polygon fill="black" stroke="black" points="1880.02,-97.5 1890.47,-95.77 1881.23,-90.6 1880.02,-97.5"/>
</g>
<!-- 2222600948304exp -->
<g id="node10" class="node">
<title>2222600948304exp</title>
<ellipse fill="none" stroke="black" cx="1605.75" cy="-73.5" rx="27" ry="18"/>
<text text-anchor="middle" x="1605.75" y="-68.08" font-family="Times New Roman,serif" font-size="14.00">exp</text>
</g>
<!-- 2222600948304exp&#45;&gt;2222600948304 -->
<g id="edge4" class="edge">
<title>2222600948304exp&#45;&gt;2222600948304</title>
<path fill="none" stroke="black" d="M1632.94,-73.5C1640.4,-73.5 1649.01,-73.5 1658.17,-73.5"/>
<polygon fill="black" stroke="black" points="1658.06,-77 1668.06,-73.5 1658.06,-70 1658.06,-77"/>
</g>
<!-- 2222600952400 -->
<g id="node11" class="node">
<title>2222600952400</title>
<polygon fill="none" stroke="black" points="1049.25,-83.5 1049.25,-119.5 1234.5,-119.5 1234.5,-83.5 1049.25,-83.5"/>
<text text-anchor="middle" x="1060.62" y="-96.2" font-family="Times New Roman,serif" font-size="14.00">n</text>
<polyline fill="none" stroke="black" points="1072,-83.75 1072,-119.5"/>
<text text-anchor="middle" x="1112.25" y="-96.2" font-family="Times New Roman,serif" font-size="14.00">data 0.8814</text>
<polyline fill="none" stroke="black" points="1152.5,-83.75 1152.5,-119.5"/>
<text text-anchor="middle" x="1193.5" y="-96.2" font-family="Times New Roman,serif" font-size="14.00">grad 0.5000</text>
</g>
<!-- 2222600952464* -->
<g id="node16" class="node">
<title>2222600952464*</title>
<ellipse fill="none" stroke="black" cx="1297.5" cy="-73.5" rx="27" ry="18"/>
<text text-anchor="middle" x="1297.5" y="-68.08" font-family="Times New Roman,serif" font-size="14.00">*</text>
</g>
<!-- 2222600952400&#45;&gt;2222600952464* -->
<g id="edge18" class="edge">
<title>2222600952400&#45;&gt;2222600952464*</title>
<path fill="none" stroke="black" d="M1234.9,-84.73C1243.64,-83.13 1252.11,-81.59 1259.83,-80.18"/>
<polygon fill="black" stroke="black" points="1260.2,-83.67 1269.41,-78.44 1258.94,-76.79 1260.2,-83.67"/>
</g>
<!-- 2222600952400+&#45;&gt;2222600952400 -->
<g id="edge5" class="edge">
<title>2222600952400+&#45;&gt;2222600952400</title>
<path fill="none" stroke="black" d="M1013.66,-101.5C1020.7,-101.5 1028.75,-101.5 1037.3,-101.5"/>
<polygon fill="black" stroke="black" points="1037.29,-105 1047.29,-101.5 1037.29,-98 1037.29,-105"/>
</g>
<!-- 2222600952336 -->
<g id="node13" class="node">
<title>2222600952336</title>
<polygon fill="none" stroke="black" points="327.75,-84.5 327.75,-120.5 536.25,-120.5 536.25,-84.5 327.75,-84.5"/>
<text text-anchor="middle" x="350.75" y="-97.2" font-family="Times New Roman,serif" font-size="14.00">x2w2</text>
<polyline fill="none" stroke="black" points="373.75,-84.75 373.75,-120.5"/>
<text text-anchor="middle" x="414" y="-97.2" font-family="Times New Roman,serif" font-size="14.00">data 0.0000</text>
<polyline fill="none" stroke="black" points="454.25,-84.75 454.25,-120.5"/>
<text text-anchor="middle" x="495.25" y="-97.2" font-family="Times New Roman,serif" font-size="14.00">grad 0.5000</text>
</g>
<!-- 2222600952336&#45;&gt;2222564795920+ -->
<g id="edge23" class="edge">
<title>2222600952336&#45;&gt;2222564795920+</title>
<path fill="none" stroke="black" d="M536.7,-119.22C546.14,-120.74 555.22,-122.2 563.43,-123.52"/>
<polygon fill="black" stroke="black" points="562.84,-126.97 573.27,-125.11 563.95,-120.06 562.84,-126.97"/>
</g>
<!-- 2222600952336* -->
<g id="node14" class="node">
<title>2222600952336*</title>
<ellipse fill="none" stroke="black" cx="262.5" cy="-102.5" rx="27" ry="18"/>
<text text-anchor="middle" x="262.5" y="-97.08" font-family="Times New Roman,serif" font-size="14.00">*</text>
</g>
<!-- 2222600952336*&#45;&gt;2222600952336 -->
<g id="edge6" class="edge">
<title>2222600952336*&#45;&gt;2222600952336</title>
<path fill="none" stroke="black" d="M289.67,-102.5C297.34,-102.5 306.26,-102.5 315.82,-102.5"/>
<polygon fill="black" stroke="black" points="315.79,-106 325.79,-102.5 315.79,-99 315.79,-106"/>
</g>
<!-- 2222600952464 -->
<g id="node15" class="node">
<title>2222600952464</title>
<polygon fill="none" stroke="black" points="1360.5,-55.5 1360.5,-91.5 1542.75,-91.5 1542.75,-55.5 1360.5,-55.5"/>
<text text-anchor="middle" x="1370.38" y="-68.2" font-family="Times New Roman,serif" font-size="14.00"> </text>
<polyline fill="none" stroke="black" points="1380.25,-55.75 1380.25,-91.5"/>
<text text-anchor="middle" x="1420.5" y="-68.2" font-family="Times New Roman,serif" font-size="14.00">data 1.7627</text>
<polyline fill="none" stroke="black" points="1460.75,-55.75 1460.75,-91.5"/>
<text text-anchor="middle" x="1501.75" y="-68.2" font-family="Times New Roman,serif" font-size="14.00">grad 0.2500</text>
</g>
<!-- 2222600952464&#45;&gt;2222600948304exp -->
<g id="edge13" class="edge">
<title>2222600952464&#45;&gt;2222600948304exp</title>
<path fill="none" stroke="black" d="M1542.87,-73.5C1551.26,-73.5 1559.4,-73.5 1566.87,-73.5"/>
<polygon fill="black" stroke="black" points="1566.87,-77 1576.87,-73.5 1566.87,-70 1566.87,-77"/>
</g>
<!-- 2222600952464*&#45;&gt;2222600952464 -->
<g id="edge7" class="edge">
<title>2222600952464*&#45;&gt;2222600952464</title>
<path fill="none" stroke="black" d="M1325,-73.5C1332.04,-73.5 1340.09,-73.5 1348.63,-73.5"/>
<polygon fill="black" stroke="black" points="1348.59,-77 1358.59,-73.5 1348.59,-70 1348.59,-77"/>
</g>
<!-- 2222600951888 -->
<g id="node17" class="node">
<title>2222600951888</title>
<polygon fill="none" stroke="black" points="3.75,-84.5 3.75,-120.5 195.75,-120.5 195.75,-84.5 3.75,-84.5"/>
<text text-anchor="middle" x="18.5" y="-97.2" font-family="Times New Roman,serif" font-size="14.00">x2</text>
<polyline fill="none" stroke="black" points="33.25,-84.75 33.25,-120.5"/>
<text text-anchor="middle" x="73.5" y="-97.2" font-family="Times New Roman,serif" font-size="14.00">data 0.0000</text>
<polyline fill="none" stroke="black" points="113.75,-84.75 113.75,-120.5"/>
<text text-anchor="middle" x="154.75" y="-97.2" font-family="Times New Roman,serif" font-size="14.00">grad 0.5000</text>
</g>
<!-- 2222600951888&#45;&gt;2222600952336* -->
<g id="edge24" class="edge">
<title>2222600951888&#45;&gt;2222600952336*</title>
<path fill="none" stroke="black" d="M196.12,-102.5C205.86,-102.5 215.3,-102.5 223.83,-102.5"/>
<polygon fill="black" stroke="black" points="223.71,-106 233.71,-102.5 223.71,-99 223.71,-106"/>
</g>
<!-- 2222600951376 -->
<g id="node18" class="node">
<title>2222600951376</title>
<polygon fill="none" stroke="black" points="2.25,-29.5 2.25,-65.5 197.25,-65.5 197.25,-29.5 2.25,-29.5"/>
<text text-anchor="middle" x="18.5" y="-42.2" font-family="Times New Roman,serif" font-size="14.00">w2</text>
<polyline fill="none" stroke="black" points="34.75,-29.75 34.75,-65.5"/>
<text text-anchor="middle" x="75" y="-42.2" font-family="Times New Roman,serif" font-size="14.00">data 1.0000</text>
<polyline fill="none" stroke="black" points="115.25,-29.75 115.25,-65.5"/>
<text text-anchor="middle" x="156.25" y="-42.2" font-family="Times New Roman,serif" font-size="14.00">grad 0.0000</text>
</g>
<!-- 2222600951376&#45;&gt;2222600952336* -->
<g id="edge28" class="edge">
<title>2222600951376&#45;&gt;2222600952336*</title>
<path fill="none" stroke="black" d="M170.45,-65.99C180.27,-68.97 190.19,-72.17 199.5,-75.5 209.46,-79.06 220.09,-83.46 229.68,-87.67"/>
<polygon fill="black" stroke="black" points="228.04,-90.77 238.6,-91.66 230.9,-84.38 228.04,-90.77"/>
</g>
<!-- 2222600952528 -->
<g id="node19" class="node">
<title>2222600952528</title>
<polygon fill="none" stroke="black" points="2204.25,-27.5 2204.25,-63.5 2386.5,-63.5 2386.5,-27.5 2204.25,-27.5"/>
<text text-anchor="middle" x="2214.12" y="-40.2" font-family="Times New Roman,serif" font-size="14.00"> </text>
<polyline fill="none" stroke="black" points="2224,-27.75 2224,-63.5"/>
<text text-anchor="middle" x="2264.25" y="-40.2" font-family="Times New Roman,serif" font-size="14.00">data 4.8284</text>
<polyline fill="none" stroke="black" points="2304.5,-27.75 2304.5,-63.5"/>
<text text-anchor="middle" x="2345.5" y="-40.2" font-family="Times New Roman,serif" font-size="14.00">grad 0.1464</text>
</g>
<!-- 2222600952528&#45;&gt;2222600953104* -->
<g id="edge22" class="edge">
<title>2222600952528&#45;&gt;2222600953104*</title>
<path fill="none" stroke="black" d="M2386.98,-52.1C2464.75,-57.77 2572.96,-65.66 2629.29,-69.77"/>
<polygon fill="black" stroke="black" points="2628.75,-73.24 2638.98,-70.48 2629.26,-66.26 2628.75,-73.24"/>
</g>
<!-- 2222600952528+&#45;&gt;2222600952528 -->
<g id="edge8" class="edge">
<title>2222600952528+&#45;&gt;2222600952528</title>
<path fill="none" stroke="black" d="M1945.86,-45.5C1996.29,-45.5 2108.84,-45.5 2192.47,-45.5"/>
<polygon fill="black" stroke="black" points="2192.3,-49 2202.3,-45.5 2192.3,-42 2192.3,-49"/>
</g>
<!-- 2222600953104 -->
<g id="node21" class="node">
<title>2222600953104</title>
<polygon fill="none" stroke="black" points="2730.75,-54.5 2730.75,-90.5 2916.75,-90.5 2916.75,-54.5 2730.75,-54.5"/>
<text text-anchor="middle" x="2742.5" y="-67.2" font-family="Times New Roman,serif" font-size="14.00">o</text>
<polyline fill="none" stroke="black" points="2754.25,-54.75 2754.25,-90.5"/>
<text text-anchor="middle" x="2794.5" y="-67.2" font-family="Times New Roman,serif" font-size="14.00">data 0.7071</text>
<polyline fill="none" stroke="black" points="2834.75,-54.75 2834.75,-90.5"/>
<text text-anchor="middle" x="2875.75" y="-67.2" font-family="Times New Roman,serif" font-size="14.00">grad 1.0000</text>
</g>
<!-- 2222600953104*&#45;&gt;2222600953104 -->
<g id="edge9" class="edge">
<title>2222600953104*&#45;&gt;2222600953104</title>
<path fill="none" stroke="black" d="M2695.22,-72.5C2702.36,-72.5 2710.53,-72.5 2719.21,-72.5"/>
<polygon fill="black" stroke="black" points="2718.94,-76 2728.94,-72.5 2718.94,-69 2718.94,-76"/>
</g>
<!-- 2222600952080 -->
<g id="node23" class="node">
<title>2222600952080</title>
<polygon fill="none" stroke="black" points="700.88,-56.5 700.88,-92.5 886.88,-92.5 886.88,-56.5 700.88,-56.5"/>
<text text-anchor="middle" x="712.62" y="-69.2" font-family="Times New Roman,serif" font-size="14.00">b</text>
<polyline fill="none" stroke="black" points="724.38,-56.75 724.38,-92.5"/>
<text text-anchor="middle" x="764.62" y="-69.2" font-family="Times New Roman,serif" font-size="14.00">data 6.8814</text>
<polyline fill="none" stroke="black" points="804.88,-56.75 804.88,-92.5"/>
<text text-anchor="middle" x="845.88" y="-69.2" font-family="Times New Roman,serif" font-size="14.00">grad 0.5000</text>
</g>
<!-- 2222600952080&#45;&gt;2222600952400+ -->
<g id="edge21" class="edge">
<title>2222600952080&#45;&gt;2222600952400+</title>
<path fill="none" stroke="black" d="M887.27,-87.6C908.83,-90.66 930.57,-93.74 948.08,-96.23"/>
<polygon fill="black" stroke="black" points="947.58,-99.69 957.97,-97.63 948.56,-92.76 947.58,-99.69"/>
</g>
<!-- 2222600951632 -->
<g id="node24" class="node">
<title>2222600951632</title>
<polygon fill="none" stroke="black" points="1.5,-139.5 1.5,-175.5 198,-175.5 198,-139.5 1.5,-139.5"/>
<text text-anchor="middle" x="16.25" y="-152.2" font-family="Times New Roman,serif" font-size="14.00">x1</text>
<polyline fill="none" stroke="black" points="31,-139.75 31,-175.5"/>
<text text-anchor="middle" x="71.25" y="-152.2" font-family="Times New Roman,serif" font-size="14.00">data 2.0000</text>
<polyline fill="none" stroke="black" points="111.5,-139.75 111.5,-175.5"/>
<text text-anchor="middle" x="154.75" y="-152.2" font-family="Times New Roman,serif" font-size="14.00">grad &#45;1.5000</text>
</g>
<!-- 2222600951632&#45;&gt;2222564691472* -->
<g id="edge27" class="edge">
<title>2222600951632&#45;&gt;2222564691472*</title>
<path fill="none" stroke="black" d="M198.43,-157.5C207.33,-157.5 215.94,-157.5 223.79,-157.5"/>
<polygon fill="black" stroke="black" points="223.53,-161 233.53,-157.5 223.53,-154 223.53,-161"/>
</g>
<!-- 2222600952208 -->
<g id="node25" class="node">
<title>2222600952208</title>
<polygon fill="none" stroke="black" points="1050.75,-28.5 1050.75,-64.5 1233,-64.5 1233,-28.5 1050.75,-28.5"/>
<text text-anchor="middle" x="1060.62" y="-41.2" font-family="Times New Roman,serif" font-size="14.00"> </text>
<polyline fill="none" stroke="black" points="1070.5,-28.75 1070.5,-64.5"/>
<text text-anchor="middle" x="1110.75" y="-41.2" font-family="Times New Roman,serif" font-size="14.00">data 2.0000</text>
<polyline fill="none" stroke="black" points="1151,-28.75 1151,-64.5"/>
<text text-anchor="middle" x="1192" y="-41.2" font-family="Times New Roman,serif" font-size="14.00">grad 0.2203</text>
</g>
<!-- 2222600952208&#45;&gt;2222600952464* -->
<g id="edge16" class="edge">
<title>2222600952208&#45;&gt;2222600952464*</title>
<path fill="none" stroke="black" d="M1233.13,-62.36C1242.43,-64 1251.46,-65.58 1259.65,-67.02"/>
<polygon fill="black" stroke="black" points="1259.04,-70.47 1269.5,-68.75 1260.25,-63.58 1259.04,-70.47"/>
</g>
<!-- 2222600952272 -->
<g id="node26" class="node">
<title>2222600952272</title>
<polygon fill="none" stroke="black" points="1981.5,-82.5 1981.5,-118.5 2168.25,-118.5 2168.25,-82.5 1981.5,-82.5"/>
<text text-anchor="middle" x="1991.38" y="-95.2" font-family="Times New Roman,serif" font-size="14.00"> </text>
<polyline fill="none" stroke="black" points="2001.25,-82.75 2001.25,-118.5"/>
<text text-anchor="middle" x="2041.5" y="-95.2" font-family="Times New Roman,serif" font-size="14.00">data 6.8284</text>
<polyline fill="none" stroke="black" points="2081.75,-82.75 2081.75,-118.5"/>
<text text-anchor="middle" x="2125" y="-95.2" font-family="Times New Roman,serif" font-size="14.00">grad &#45;0.1036</text>
</g>
<!-- 2222600952272&#45;&gt;2222600952912**&#45;1 -->
<g id="edge19" class="edge">
<title>2222600952272&#45;&gt;2222600952912**&#45;1</title>
<path fill="none" stroke="black" d="M2168.54,-100.5C2199.53,-100.5 2232.33,-100.5 2256.68,-100.5"/>
<polygon fill="black" stroke="black" points="2256.39,-104 2266.39,-100.5 2256.39,-97 2256.39,-104"/>
</g>
<!-- 2222600952272+&#45;&gt;2222600952272 -->
<g id="edge10" class="edge">
<title>2222600952272+&#45;&gt;2222600952272</title>
<path fill="none" stroke="black" d="M1945.69,-100.5C1952.82,-100.5 1961.02,-100.5 1969.73,-100.5"/>
<polygon fill="black" stroke="black" points="1969.5,-104 1979.5,-100.5 1969.5,-97 1969.5,-104"/>
</g>
<!-- 2222600952784 -->
<g id="node28" class="node">
<title>2222600952784</title>
<polygon fill="none" stroke="black" points="1668.75,-0.5 1668.75,-36.5 1855.5,-36.5 1855.5,-0.5 1668.75,-0.5"/>
<text text-anchor="middle" x="1678.62" y="-13.2" font-family="Times New Roman,serif" font-size="14.00"> </text>
<polyline fill="none" stroke="black" points="1688.5,-0.75 1688.5,-36.5"/>
<text text-anchor="middle" x="1731" y="-13.2" font-family="Times New Roman,serif" font-size="14.00">data &#45;1.0000</text>
<polyline fill="none" stroke="black" points="1773.5,-0.75 1773.5,-36.5"/>
<text text-anchor="middle" x="1814.5" y="-13.2" font-family="Times New Roman,serif" font-size="14.00">grad 0.1464</text>
</g>
<!-- 2222600952784&#45;&gt;2222600952528+ -->
<g id="edge17" class="edge">
<title>2222600952784&#45;&gt;2222600952528+</title>
<path fill="none" stroke="black" d="M1855.6,-34.67C1864.47,-36.22 1873.06,-37.73 1880.87,-39.09"/>
<polygon fill="black" stroke="black" points="1880.13,-42.52 1890.58,-40.79 1881.33,-35.62 1880.13,-42.52"/>
</g>
</g>
</svg>
