<?xml version="1.0" encoding="UTF-8" standalone="no"?>
<!DOCTYPE svg PUBLIC "-//W3C//DTD SVG 1.1//EN"
 "http://www.w3.org/Graphics/SVG/1.1/DTD/svg11.dtd">
<!-- Generated by graphviz version 11.0.0 (20240428.1522)
 -->
<!-- Pages: 1 -->
<svg width="1147pt" height="156pt"
 viewBox="0.00 0.00 1147.25 156.00" xmlns="http://www.w3.org/2000/svg" xmlns:xlink="http://www.w3.org/1999/xlink">
<g id="graph0" class="graph" transform="scale(1 1) rotate(0) translate(4 152)">
<polygon fill="white" stroke="none" points="-4,4 -4,-152 1143.25,-152 1143.25,4 -4,4"/>
<!-- 2222564797456 -->
<g id="node1" class="node">
<title>2222564797456</title>
<polygon fill="none" stroke="black" points="0,-111.5 0,-147.5 190.5,-147.5 190.5,-111.5 0,-111.5"/>
<text text-anchor="middle" x="11.75" y="-124.2" font-family="Times New Roman,serif" font-size="14.00">b</text>
<polyline fill="none" stroke="black" points="23.5,-111.75 23.5,-147.5"/>
<text text-anchor="middle" x="66" y="-124.2" font-family="Times New Roman,serif" font-size="14.00">data &#45;3.0000</text>
<polyline fill="none" stroke="black" points="108.5,-111.75 108.5,-147.5"/>
<text text-anchor="middle" x="149.5" y="-124.2" font-family="Times New Roman,serif" font-size="14.00">grad 0.0000</text>
</g>
<!-- 2222564760400* -->
<g id="node6" class="node">
<title>2222564760400*</title>
<ellipse fill="none" stroke="black" cx="253.5" cy="-101.5" rx="27" ry="18"/>
<text text-anchor="middle" x="253.5" y="-96.08" font-family="Times New Roman,serif" font-size="14.00">*</text>
</g>
<!-- 2222564797456&#45;&gt;2222564760400* -->
<g id="edge5" class="edge">
<title>2222564797456&#45;&gt;2222564760400*</title>
<path fill="none" stroke="black" d="M190.75,-112.57C199.54,-110.99 208.04,-109.47 215.78,-108.08"/>
<polygon fill="black" stroke="black" points="216.16,-111.57 225.39,-106.36 214.93,-104.68 216.16,-111.57"/>
</g>
<!-- 2222564766800 -->
<g id="node2" class="node">
<title>2222564766800</title>
<polygon fill="none" stroke="black" points="3,-56.5 3,-92.5 187.5,-92.5 187.5,-56.5 3,-56.5"/>
<text text-anchor="middle" x="14" y="-69.2" font-family="Times New Roman,serif" font-size="14.00">a</text>
<polyline fill="none" stroke="black" points="25,-56.75 25,-92.5"/>
<text text-anchor="middle" x="65.25" y="-69.2" font-family="Times New Roman,serif" font-size="14.00">data 2.0000</text>
<polyline fill="none" stroke="black" points="105.5,-56.75 105.5,-92.5"/>
<text text-anchor="middle" x="146.5" y="-69.2" font-family="Times New Roman,serif" font-size="14.00">grad 0.0000</text>
</g>
<!-- 2222564766800&#45;&gt;2222564760400* -->
<g id="edge9" class="edge">
<title>2222564766800&#45;&gt;2222564760400*</title>
<path fill="none" stroke="black" d="M187.59,-90.28C197.51,-92 207.14,-93.66 215.8,-95.16"/>
<polygon fill="black" stroke="black" points="215.02,-98.58 225.47,-96.83 216.22,-91.68 215.02,-98.58"/>
</g>
<!-- 2222564762896 -->
<g id="node3" class="node">
<title>2222564762896</title>
<polygon fill="none" stroke="black" points="634.5,-0.5 634.5,-36.5 822,-36.5 822,-0.5 634.5,-0.5"/>
<text text-anchor="middle" x="644.75" y="-13.2" font-family="Times New Roman,serif" font-size="14.00">f</text>
<polyline fill="none" stroke="black" points="655,-0.75 655,-36.5"/>
<text text-anchor="middle" x="697.5" y="-13.2" font-family="Times New Roman,serif" font-size="14.00">data &#45;2.0000</text>
<polyline fill="none" stroke="black" points="740,-0.75 740,-36.5"/>
<text text-anchor="middle" x="781" y="-13.2" font-family="Times New Roman,serif" font-size="14.00">grad 0.0000</text>
</g>
<!-- 2222564769680* -->
<g id="node8" class="node">
<title>2222564769680*</title>
<ellipse fill="none" stroke="black" cx="885" cy="-45.5" rx="27" ry="18"/>
<text text-anchor="middle" x="885" y="-40.08" font-family="Times New Roman,serif" font-size="14.00">*</text>
</g>
<!-- 2222564762896&#45;&gt;2222564769680* -->
<g id="edge6" class="edge">
<title>2222564762896&#45;&gt;2222564769680*</title>
<path fill="none" stroke="black" d="M822.39,-34.75C831.15,-36.28 839.63,-37.76 847.34,-39.1"/>
<polygon fill="black" stroke="black" points="846.47,-42.51 856.93,-40.78 847.68,-35.61 846.47,-42.51"/>
</g>
<!-- 2222564763408 -->
<g id="node4" class="node">
<title>2222564763408</title>
<polygon fill="none" stroke="black" points="316.5,-28.5 316.5,-64.5 508.5,-64.5 508.5,-28.5 316.5,-28.5"/>
<text text-anchor="middle" x="327.88" y="-41.2" font-family="Times New Roman,serif" font-size="14.00">c</text>
<polyline fill="none" stroke="black" points="339.25,-28.75 339.25,-64.5"/>
<text text-anchor="middle" x="382.88" y="-41.2" font-family="Times New Roman,serif" font-size="14.00">data 10.0000</text>
<polyline fill="none" stroke="black" points="426.5,-28.75 426.5,-64.5"/>
<text text-anchor="middle" x="467.5" y="-41.2" font-family="Times New Roman,serif" font-size="14.00">grad 0.0000</text>
</g>
<!-- 2222564753808+ -->
<g id="node10" class="node">
<title>2222564753808+</title>
<ellipse fill="none" stroke="black" cx="571.5" cy="-73.5" rx="27" ry="18"/>
<text text-anchor="middle" x="571.5" y="-68.08" font-family="Times New Roman,serif" font-size="14.00">+</text>
</g>
<!-- 2222564763408&#45;&gt;2222564753808+ -->
<g id="edge8" class="edge">
<title>2222564763408&#45;&gt;2222564753808+</title>
<path fill="none" stroke="black" d="M508.9,-62.91C517.58,-64.4 525.97,-65.84 533.62,-67.16"/>
<polygon fill="black" stroke="black" points="533.03,-70.61 543.47,-68.85 534.21,-63.71 533.03,-70.61"/>
</g>
<!-- 2222564760400 -->
<g id="node5" class="node">
<title>2222564760400</title>
<polygon fill="none" stroke="black" points="318,-83.5 318,-119.5 507,-119.5 507,-83.5 318,-83.5"/>
<text text-anchor="middle" x="329" y="-96.2" font-family="Times New Roman,serif" font-size="14.00">e</text>
<polyline fill="none" stroke="black" points="340,-83.75 340,-119.5"/>
<text text-anchor="middle" x="382.5" y="-96.2" font-family="Times New Roman,serif" font-size="14.00">data &#45;6.0000</text>
<polyline fill="none" stroke="black" points="425,-83.75 425,-119.5"/>
<text text-anchor="middle" x="466" y="-96.2" font-family="Times New Roman,serif" font-size="14.00">grad 0.0000</text>
</g>
<!-- 2222564760400&#45;&gt;2222564753808+ -->
<g id="edge7" class="edge">
<title>2222564760400&#45;&gt;2222564753808+</title>
<path fill="none" stroke="black" d="M507.09,-84.81C516.56,-83.12 525.72,-81.49 533.99,-80.01"/>
<polygon fill="black" stroke="black" points="534.32,-83.51 543.55,-78.31 533.09,-76.62 534.32,-83.51"/>
</g>
<!-- 2222564760400*&#45;&gt;2222564760400 -->
<g id="edge1" class="edge">
<title>2222564760400*&#45;&gt;2222564760400</title>
<path fill="none" stroke="black" d="M280.78,-101.5C288.29,-101.5 296.96,-101.5 306.2,-101.5"/>
<polygon fill="black" stroke="black" points="306.2,-105 316.2,-101.5 306.2,-98 306.2,-105"/>
</g>
<!-- 2222564769680 -->
<g id="node7" class="node">
<title>2222564769680</title>
<polygon fill="none" stroke="black" points="948,-27.5 948,-63.5 1139.25,-63.5 1139.25,-27.5 948,-27.5"/>
<text text-anchor="middle" x="960.12" y="-40.2" font-family="Times New Roman,serif" font-size="14.00">L</text>
<polyline fill="none" stroke="black" points="972.25,-27.75 972.25,-63.5"/>
<text text-anchor="middle" x="1014.75" y="-40.2" font-family="Times New Roman,serif" font-size="14.00">data &#45;8.0000</text>
<polyline fill="none" stroke="black" points="1057.25,-27.75 1057.25,-63.5"/>
<text text-anchor="middle" x="1098.25" y="-40.2" font-family="Times New Roman,serif" font-size="14.00">grad 0.0000</text>
</g>
<!-- 2222564769680*&#45;&gt;2222564769680 -->
<g id="edge2" class="edge">
<title>2222564769680*&#45;&gt;2222564769680</title>
<path fill="none" stroke="black" d="M912.22,-45.5C919.38,-45.5 927.61,-45.5 936.37,-45.5"/>
<polygon fill="black" stroke="black" points="936.21,-49 946.21,-45.5 936.21,-42 936.21,-49"/>
</g>
<!-- 2222564753808 -->
<g id="node9" class="node">
<title>2222564753808</title>
<polygon fill="none" stroke="black" points="635.25,-55.5 635.25,-91.5 821.25,-91.5 821.25,-55.5 635.25,-55.5"/>
<text text-anchor="middle" x="647" y="-68.2" font-family="Times New Roman,serif" font-size="14.00">d</text>
<polyline fill="none" stroke="black" points="658.75,-55.75 658.75,-91.5"/>
<text text-anchor="middle" x="699" y="-68.2" font-family="Times New Roman,serif" font-size="14.00">data 4.0000</text>
<polyline fill="none" stroke="black" points="739.25,-55.75 739.25,-91.5"/>
<text text-anchor="middle" x="780.25" y="-68.2" font-family="Times New Roman,serif" font-size="14.00">grad 0.0000</text>
</g>
<!-- 2222564753808&#45;&gt;2222564769680* -->
<g id="edge4" class="edge">
<title>2222564753808&#45;&gt;2222564769680*</title>
<path fill="none" stroke="black" d="M821.5,-56.81C830.64,-55.16 839.48,-53.56 847.5,-52.1"/>
<polygon fill="black" stroke="black" points="847.9,-55.59 857.12,-50.36 846.65,-48.7 847.9,-55.59"/>
</g>
<!-- 2222564753808+&#45;&gt;2222564753808 -->
<g id="edge3" class="edge">
<title>2222564753808+&#45;&gt;2222564753808</title>
<path fill="none" stroke="black" d="M598.75,-73.5C606.11,-73.5 614.58,-73.5 623.59,-73.5"/>
<polygon fill="black" stroke="black" points="623.3,-77 633.3,-73.5 623.3,-70 623.3,-77"/>
</g>
</g>
</svg>
