<?xml version="1.0" encoding="UTF-8" standalone="no"?>
<!DOCTYPE svg PUBLIC "-//W3C//DTD SVG 1.1//EN"
 "http://www.w3.org/Graphics/SVG/1.1/DTD/svg11.dtd">
<!-- Generated by graphviz version 11.0.0 (20240428.1522)
 -->
<!-- Pages: 1 -->
<svg width="1152pt" height="156pt"
 viewBox="0.00 0.00 1151.75 156.00" xmlns="http://www.w3.org/2000/svg" xmlns:xlink="http://www.w3.org/1999/xlink">
<g id="graph0" class="graph" transform="scale(1 1) rotate(0) translate(4 152)">
<polygon fill="white" stroke="none" points="-4,4 -4,-152 1147.75,-152 1147.75,4 -4,4"/>
<!-- 1743401029712 -->
<g id="node1" class="node">
<title>1743401029712</title>
<polygon fill="none" stroke="black" points="0,-111.5 0,-147.5 195,-147.5 195,-111.5 0,-111.5"/>
<text text-anchor="middle" x="11.75" y="-124.2" font-family="Times New Roman,serif" font-size="14.00">b</text>
<polyline fill="none" stroke="black" points="23.5,-111.75 23.5,-147.5"/>
<text text-anchor="middle" x="66" y="-124.2" font-family="Times New Roman,serif" font-size="14.00">data &#45;3.0400</text>
<polyline fill="none" stroke="black" points="108.5,-111.75 108.5,-147.5"/>
<text text-anchor="middle" x="151.75" y="-124.2" font-family="Times New Roman,serif" font-size="14.00">grad &#45;4.0000</text>
</g>
<!-- 1743688729552* -->
<g id="node10" class="node">
<title>1743688729552*</title>
<ellipse fill="none" stroke="black" cx="258" cy="-101.5" rx="27" ry="18"/>
<text text-anchor="middle" x="258" y="-96.08" font-family="Times New Roman,serif" font-size="14.00">*</text>
</g>
<!-- 1743401029712&#45;&gt;1743688729552* -->
<g id="edge7" class="edge">
<title>1743401029712&#45;&gt;1743688729552*</title>
<path fill="none" stroke="black" d="M195.27,-112.41C204.08,-110.85 212.6,-109.34 220.34,-107.98"/>
<polygon fill="black" stroke="black" points="220.7,-111.47 229.94,-106.28 219.49,-104.57 220.7,-111.47"/>
</g>
<!-- 1743688475792 -->
<g id="node2" class="node">
<title>1743688475792</title>
<polygon fill="none" stroke="black" points="322.88,-28.5 322.88,-64.5 512.62,-64.5 512.62,-28.5 322.88,-28.5"/>
<text text-anchor="middle" x="334.25" y="-41.2" font-family="Times New Roman,serif" font-size="14.00">c</text>
<polyline fill="none" stroke="black" points="345.62,-28.75 345.62,-64.5"/>
<text text-anchor="middle" x="385.88" y="-41.2" font-family="Times New Roman,serif" font-size="14.00">data 9.9800</text>
<polyline fill="none" stroke="black" points="426.12,-28.75 426.12,-64.5"/>
<text text-anchor="middle" x="469.38" y="-41.2" font-family="Times New Roman,serif" font-size="14.00">grad &#45;2.0000</text>
</g>
<!-- 1743688800464+ -->
<g id="node7" class="node">
<title>1743688800464+</title>
<ellipse fill="none" stroke="black" cx="577.5" cy="-73.5" rx="27" ry="18"/>
<text text-anchor="middle" x="577.5" y="-68.08" font-family="Times New Roman,serif" font-size="14.00">+</text>
</g>
<!-- 1743688475792&#45;&gt;1743688800464+ -->
<g id="edge5" class="edge">
<title>1743688475792&#45;&gt;1743688800464+</title>
<path fill="none" stroke="black" d="M512.79,-62.6C522.3,-64.22 531.5,-65.8 539.82,-67.22"/>
<polygon fill="black" stroke="black" points="538.98,-70.63 549.43,-68.87 540.16,-63.73 538.98,-70.63"/>
</g>
<!-- 1743688798352 -->
<g id="node3" class="node">
<title>1743688798352</title>
<polygon fill="none" stroke="black" points="957,-27.5 957,-63.5 1143.75,-63.5 1143.75,-27.5 957,-27.5"/>
<text text-anchor="middle" x="966.88" y="-40.2" font-family="Times New Roman,serif" font-size="14.00"> </text>
<polyline fill="none" stroke="black" points="976.75,-27.75 976.75,-63.5"/>
<text text-anchor="middle" x="1019.25" y="-40.2" font-family="Times New Roman,serif" font-size="14.00">data &#45;7.2865</text>
<polyline fill="none" stroke="black" points="1061.75,-27.75 1061.75,-63.5"/>
<text text-anchor="middle" x="1102.75" y="-40.2" font-family="Times New Roman,serif" font-size="14.00">grad 0.0000</text>
</g>
<!-- 1743688798352* -->
<g id="node4" class="node">
<title>1743688798352*</title>
<ellipse fill="none" stroke="black" cx="894" cy="-45.5" rx="27" ry="18"/>
<text text-anchor="middle" x="894" y="-40.08" font-family="Times New Roman,serif" font-size="14.00">*</text>
</g>
<!-- 1743688798352*&#45;&gt;1743688798352 -->
<g id="edge1" class="edge">
<title>1743688798352*&#45;&gt;1743688798352</title>
<path fill="none" stroke="black" d="M921.19,-45.5C928.32,-45.5 936.52,-45.5 945.23,-45.5"/>
<polygon fill="black" stroke="black" points="945,-49 955,-45.5 945,-42 945,-49"/>
</g>
<!-- 1743400792016 -->
<g id="node5" class="node">
<title>1743400792016</title>
<polygon fill="none" stroke="black" points="5.25,-56.5 5.25,-92.5 189.75,-92.5 189.75,-56.5 5.25,-56.5"/>
<text text-anchor="middle" x="16.25" y="-69.2" font-family="Times New Roman,serif" font-size="14.00">a</text>
<polyline fill="none" stroke="black" points="27.25,-56.75 27.25,-92.5"/>
<text text-anchor="middle" x="67.5" y="-69.2" font-family="Times New Roman,serif" font-size="14.00">data 2.0600</text>
<polyline fill="none" stroke="black" points="107.75,-56.75 107.75,-92.5"/>
<text text-anchor="middle" x="148.75" y="-69.2" font-family="Times New Roman,serif" font-size="14.00">grad 6.0000</text>
</g>
<!-- 1743400792016&#45;&gt;1743688729552* -->
<g id="edge8" class="edge">
<title>1743400792016&#45;&gt;1743688729552*</title>
<path fill="none" stroke="black" d="M190.24,-90.13C200.71,-91.91 210.89,-93.64 220.01,-95.2"/>
<polygon fill="black" stroke="black" points="219.38,-98.64 229.83,-96.87 220.56,-91.74 219.38,-98.64"/>
</g>
<!-- 1743688800464 -->
<g id="node6" class="node">
<title>1743688800464</title>
<polygon fill="none" stroke="black" points="640.5,-55.5 640.5,-91.5 831,-91.5 831,-55.5 640.5,-55.5"/>
<text text-anchor="middle" x="652.25" y="-68.2" font-family="Times New Roman,serif" font-size="14.00">d</text>
<polyline fill="none" stroke="black" points="664,-55.75 664,-91.5"/>
<text text-anchor="middle" x="704.25" y="-68.2" font-family="Times New Roman,serif" font-size="14.00">data 3.7176</text>
<polyline fill="none" stroke="black" points="744.5,-55.75 744.5,-91.5"/>
<text text-anchor="middle" x="787.75" y="-68.2" font-family="Times New Roman,serif" font-size="14.00">grad &#45;2.0000</text>
</g>
<!-- 1743688800464&#45;&gt;1743688798352* -->
<g id="edge9" class="edge">
<title>1743688800464&#45;&gt;1743688798352*</title>
<path fill="none" stroke="black" d="M831.25,-56.57C840.04,-54.99 848.54,-53.47 856.28,-52.08"/>
<polygon fill="black" stroke="black" points="856.66,-55.57 865.89,-50.36 855.43,-48.68 856.66,-55.57"/>
</g>
<!-- 1743688800464+&#45;&gt;1743688800464 -->
<g id="edge2" class="edge">
<title>1743688800464+&#45;&gt;1743688800464</title>
<path fill="none" stroke="black" d="M604.65,-73.5C611.8,-73.5 620.01,-73.5 628.75,-73.5"/>
<polygon fill="black" stroke="black" points="628.56,-77 638.56,-73.5 628.56,-70 628.56,-77"/>
</g>
<!-- 1743651132304 -->
<g id="node8" class="node">
<title>1743651132304</title>
<polygon fill="none" stroke="black" points="642,-0.5 642,-36.5 829.5,-36.5 829.5,-0.5 642,-0.5"/>
<text text-anchor="middle" x="652.25" y="-13.2" font-family="Times New Roman,serif" font-size="14.00">f</text>
<polyline fill="none" stroke="black" points="662.5,-0.75 662.5,-36.5"/>
<text text-anchor="middle" x="705" y="-13.2" font-family="Times New Roman,serif" font-size="14.00">data &#45;1.9600</text>
<polyline fill="none" stroke="black" points="747.5,-0.75 747.5,-36.5"/>
<text text-anchor="middle" x="788.5" y="-13.2" font-family="Times New Roman,serif" font-size="14.00">grad 4.0000</text>
</g>
<!-- 1743651132304&#45;&gt;1743688798352* -->
<g id="edge6" class="edge">
<title>1743651132304&#45;&gt;1743688798352*</title>
<path fill="none" stroke="black" d="M829.9,-34.6C839.12,-36.19 848.05,-37.73 856.15,-39.13"/>
<polygon fill="black" stroke="black" points="855.42,-42.56 865.87,-40.81 856.61,-35.66 855.42,-42.56"/>
</g>
<!-- 1743688729552 -->
<g id="node9" class="node">
<title>1743688729552</title>
<polygon fill="none" stroke="black" points="321,-83.5 321,-119.5 514.5,-119.5 514.5,-83.5 321,-83.5"/>
<text text-anchor="middle" x="332" y="-96.2" font-family="Times New Roman,serif" font-size="14.00">e</text>
<polyline fill="none" stroke="black" points="343,-83.75 343,-119.5"/>
<text text-anchor="middle" x="385.5" y="-96.2" font-family="Times New Roman,serif" font-size="14.00">data &#45;6.2624</text>
<polyline fill="none" stroke="black" points="428,-83.75 428,-119.5"/>
<text text-anchor="middle" x="471.25" y="-96.2" font-family="Times New Roman,serif" font-size="14.00">grad &#45;2.0000</text>
</g>
<!-- 1743688729552&#45;&gt;1743688800464+ -->
<g id="edge4" class="edge">
<title>1743688729552&#45;&gt;1743688800464+</title>
<path fill="none" stroke="black" d="M514.61,-84.49C523.52,-82.9 532.13,-81.38 539.94,-79.99"/>
<polygon fill="black" stroke="black" points="540.42,-83.46 549.65,-78.27 539.2,-76.57 540.42,-83.46"/>
</g>
<!-- 1743688729552*&#45;&gt;1743688729552 -->
<g id="edge3" class="edge">
<title>1743688729552*&#45;&gt;1743688729552</title>
<path fill="none" stroke="black" d="M285.4,-101.5C292.56,-101.5 300.77,-101.5 309.51,-101.5"/>
<polygon fill="black" stroke="black" points="309.32,-105 319.32,-101.5 309.32,-98 309.32,-105"/>
</g>
</g>
</svg>
